<svg width="3000" height="3000" viewBox="0 0 3000 3000" fill="none" xmlns="http://www.w3.org/2000/svg">
<path d="M2604 666.084C2571.92 502.547 2424.74 200.118 2380.41 294.094C2325 411.564 2346.39 747.851 2421.24 767.429C2496.1 787.007 2387.22 296.398 2293.9 330.948C2219.24 358.588 2262.79 502.162 2293.9 570.494C2282.88 478.361 2268.73 349.376 2116 263" stroke="black" stroke-width="12" stroke-linecap="round"/>
<path d="M2012.9 621L2044.03 699.855L2152.8 647.5L2082.85 748.534L2172.9 796.432L2069 809.235L2075.16 893.789L2012.9 836.25L1926.9 915L1956.81 809.235L1873 796.432L1942.95 748.534L1913.9 681L1981.77 699.855L2012.9 621Z" fill="#FFDC4D"/>
<path d="M1452.78 1023L1462.75 1048.21L1497.57 1031.47L1475.17 1063.78L1504 1079.09L1470.74 1083.18L1472.71 1110.22L1452.78 1091.82L1425.25 1117L1434.83 1083.18L1408 1079.09L1430.39 1063.78L1421.09 1042.18L1442.82 1048.21L1452.78 1023Z" fill="#FFDC4D"/>
<path d="M1615.57 350L1632.39 392.378L1691.14 364.241L1653.36 418.539L1702 444.28L1645.87 451.161L1649.2 496.601L1615.57 465.679L1569.12 508L1585.27 451.161L1540 444.28L1577.79 418.539L1562.09 382.245L1598.76 392.378L1615.57 350Z" fill="#FFDC4D"/>
<path d="M630 2422.75C645.777 2342.11 718.159 2192.99 739.96 2239.33C767.211 2297.25 756.693 2463.06 719.88 2472.72C683.068 2482.37 736.614 2240.47 782.51 2257.5C819.227 2271.13 797.809 2341.92 782.51 2375.62C787.928 2330.19 794.889 2266.59 870 2224" stroke="black" stroke-width="12" stroke-linecap="round"/>
<path d="M839 1543V1981H1073.5V2117H1304.5" stroke="black" stroke-width="8" stroke-linecap="round"/>
<path d="M974.5 1683C999.077 1683 1019 1661.51 1019 1635C1019 1608.49 999.077 1587 974.5 1587C949.923 1587 930 1608.49 930 1635C930 1661.51 949.923 1683 974.5 1683Z" fill="black"/>
<path d="M1090.5 1683C1115.08 1683 1135 1661.51 1135 1635C1135 1608.49 1115.08 1587 1090.5 1587C1065.92 1587 1046 1608.49 1046 1635C1046 1661.51 1065.92 1683 1090.5 1683Z" fill="black"/>
<path d="M1206.5 1683C1231.08 1683 1251 1661.51 1251 1635C1251 1608.49 1231.08 1587 1206.5 1587C1181.92 1587 1162 1608.49 1162 1635C1162 1661.51 1181.92 1683 1206.5 1683Z" fill="black"/>
<path d="M908 250.955C908 264.186 905.013 290 891.758 290C878.503 290 860 264.186 860 250.955C860 237.725 870.745 227 884 227C897.255 227 908 237.725 908 250.955Z" fill="black"/>
<path d="M966 266.252C966 276.332 963.698 296 953.48 296C943.263 296 929 276.332 929 266.252C929 256.172 937.283 248 947.5 248C957.717 248 966 256.172 966 266.252Z" fill="black"/>
<path d="M915 330.252C915 340.332 912.698 360 902.48 360C892.263 360 878 340.332 878 330.252C878 320.172 886.283 312 896.5 312C906.717 312 915 320.172 915 330.252Z" fill="black"/>
<path d="M966 330.252C966 340.332 963.698 360 953.48 360C943.263 360 929 340.332 929 330.252C929 320.172 937.283 312 947.5 312C957.717 312 966 320.172 966 330.252Z" fill="black"/>
<path d="M1017 330.252C1017 340.332 1014.7 360 1004.48 360C994.263 360 980 340.332 980 330.252C980 320.172 988.283 312 998.5 312C1008.72 312 1017 320.172 1017 330.252Z" fill="black"/>
<path d="M915 394.252C915 404.332 912.76 424 902.819 424C892.878 424 879 404.332 879 394.252C879 384.172 887.059 376 897 376C906.941 376 915 384.172 915 394.252Z" fill="black"/>
<path d="M1046 412.884C1046 433.254 1041.4 473 1020.96 473C1000.53 473 972 433.254 972 412.884C972 392.513 988.565 376 1009 376C1029.43 376 1046 392.513 1046 412.884Z" fill="black"/>
<path d="M2155 1367H1263V1886H2155V1367Z" fill="#D1EAFF"/>
<path d="M2313.59 2347.47L2312.39 2346H2310.5H1613C1471.62 2346 1357 2231.39 1357 2090V1760C1357 1618.62 1471.62 1504 1613 1504H2529C2670.39 1504 2785 1618.62 2785 1760V2090C2785 2231.39 2670.38 2346 2529 2346H2488H2483.41L2484.04 2350.55L2518.09 2596.98L2313.59 2347.47Z" stroke="black" stroke-width="8"/>
<path d="M2131.4 2536.12L1903.47 2453.13L1862.13 2566.68L2090.06 2649.67L2131.4 2536.12Z" stroke="black" stroke-width="8"/>
<path d="M1989.77 2562.9L1902.77 2456.9L2130.27 2537.9L1989.77 2562.9Z" fill="black"/>
<path d="M2018 2035C2048 2010.6 2045.83 1984.83 2041 1975L2454 2074C2455.17 2091.17 2456.8 2134.7 2454 2171.5C2451.2 2208.3 2377.17 2330.17 2340.5 2386.5L2310.5 2350H1893L1776.5 2281.5C1776.5 2273.83 1784.7 2245.1 1817.5 2191.5C1858.5 2124.5 1980.5 2065.5 2018 2035Z" fill="black"/>
<path d="M1597.5 1087L1602.5 1159L1779 1150.5C1780.33 1136 1783.7 1100.8 1786.5 1076C1790 1045 1850.5 974 1855.5 958.5C1860.5 943 1860.5 932.5 1850.5 927.5C1842.5 923.5 1804.5 946.5 1786.5 958.5L1796.5 902.5C1799.67 871.666 1802.1 806.1 1786.5 790.5C1770.9 774.9 1759.33 806.333 1755.5 824C1757.17 815.666 1757.8 795.9 1747 783.5C1736.2 771.1 1721.17 799.666 1715 815.5C1715 804.833 1711.9 783.5 1699.5 783.5C1687.1 783.5 1677 826.5 1673.5 848V832.5C1674 820.5 1673.5 795.3 1667.5 790.5C1660 784.5 1652.5 794 1644 824C1635.5 854 1612 951 1588 1004.5C1568.8 1047.3 1586.33 1077.33 1597.5 1087Z" fill="#3D98E7"/>
<path d="M1778 962C1761.33 969.333 1722.7 991.8 1701.5 1023" stroke="black" stroke-width="8" stroke-linecap="round"/>
<path d="M2748.2 2220C2753.8 2214 2750.53 2185.5 2748.2 2172L2886.7 2177.5C2887.2 2191.67 2887.9 2223 2886.7 2235C2885.2 2250 2873.7 2325 2853.7 2340C2833.7 2355 2798.2 2398.5 2786.2 2418C2776.6 2433.6 2752.2 2463.17 2741.2 2476C2733.37 2482.17 2715.8 2492.2 2708.2 2483C2700.6 2473.8 2713.37 2441.5 2720.7 2426.5C2711.03 2439.83 2688.8 2467.1 2677.2 2469.5C2654 2473.5 2664.53 2438.83 2672.7 2421C2665.37 2430.33 2646.9 2448.4 2631.7 2446C2616.5 2443.6 2623.37 2416.33 2628.7 2403C2622.87 2408.67 2609.8 2418.4 2604.2 2412C2597.2 2404 2600.2 2386.5 2604.2 2371C2607.4 2358.6 2627.2 2323.5 2636.7 2307.5C2629.7 2310.5 2615.5 2314.7 2614.7 2307.5C2613.7 2298.5 2638.2 2269 2665.7 2254.5C2693.2 2240 2741.2 2227.5 2748.2 2220Z" fill="#3D98E7"/>
<path d="M2720.5 2428.5C2727.17 2417.33 2741.8 2393.7 2747 2388.5M2634.5 2395C2640.67 2384.83 2656.7 2361.2 2671.5 2348L2634.5 2395ZM2680.5 2414.5C2687.67 2403 2705 2376.8 2717 2364L2680.5 2414.5Z" stroke="black" stroke-width="8" stroke-linecap="round"/>
<path d="M2642.5 2301C2650.5 2292.17 2672.4 2271.6 2696 2260" stroke="black" stroke-width="8" stroke-linecap="round"/>
<path d="M1802.5 1188C1799.5 1163 1787 1143 1787 1143C1770 1120.5 1632.8 1132 1606 1140C1572.5 1150 1588 1203 1595 1231.5C1602 1260 1640.5 1455 1664.5 1510C1683.7 1554 1754.17 1613 1787 1637C1868.67 1690.67 2033.4 1803.7 2039 1826.5C2044.6 1849.3 2019 1924 2005.5 1958.5C2039 2015.5 2107.93 2028.5 2196 2028.5C2345 2028.5 2412.67 2084.33 2485.5 2107.5C2505 2083.5 2485.5 1915.5 2502 1884.5C2518.5 1853.5 2688.5 1903 2715 1931.5C2741.5 1960 2713.5 2131.5 2723 2158C2732.5 2184.5 2720.5 2201 2756.5 2201C2856.5 2216.2 2921.5 2194.67 2941.5 2182C2938.17 2176.33 2927.7 2123.7 2912.5 1958.5C2893.5 1752 2876 1770.5 2847.5 1749.5C2818.44 1728.09 2619 1661 2585.5 1654C2552 1647 2427.5 1630 2384.5 1613C2341.5 1596 2147 1555.5 2128 1534C2109 1512.5 1908.4 1446.43 1852 1361C1818 1309.5 1804.18 1202 1802.5 1188Z" fill="#F07CF2"/>
<path d="M1738.5 906L1753 836.5M1664.5 906L1671.5 861.5L1664.5 906ZM1698 906L1712.5 830.5L1698 906Z" stroke="black" stroke-width="8" stroke-linecap="round"/>
<path d="M2285.98 1364C2242.83 1364 2222.64 1375.48 2190.97 1432.09C2174.9 1460.83 2165.74 1504.94 2180.28 1519.58C2189.4 1528.76 2211.06 1538.74 2233.33 1546.11L2227.39 1564.32L2190.97 1691L2361.6 1605.49C2351.5 1601.5 2330.4 1598.6 2329.14 1591.63C2327.87 1584.67 2342.07 1549.53 2349.33 1532.83C2369 1515.14 2381.39 1489.33 2381.39 1460.6C2381.39 1407.25 2338.68 1364 2285.98 1364Z" fill="#3D98E7"/>
<path d="M2201.46 1469.95L2226.44 1446.33L2223.44 1479.35L2201.46 1469.95Z" fill="#0E76D0"/>
<path d="M2223.93 1448.2L2200.11 1469.39L2222.15 1478.25" stroke="black" stroke-width="6" stroke-linecap="round"/>
<path d="M2220.67 1500.61L2195.78 1488.91C2196.08 1492.93 2198.83 1500.53 2203.05 1503.48C2210.03 1508.35 2216.28 1503.99 2220.67 1500.61Z" stroke="black" stroke-width="6"/>
<path d="M2195.51 1436.77C2198.82 1439.25 2203.51 1438.59 2206 1435.28C2208.48 1431.97 2207.82 1427.28 2204.51 1424.79C2201.2 1422.31 2196.51 1422.97 2194.02 1426.28C2191.54 1429.59 2192.2 1434.28 2195.51 1436.77Z" fill="black"/>
<path d="M2245.39 1461.68C2248.7 1464.16 2253.39 1463.5 2255.88 1460.19C2258.36 1456.88 2257.7 1452.19 2254.39 1449.7C2251.08 1447.22 2246.39 1447.88 2243.9 1451.19C2241.42 1454.5 2242.08 1459.19 2245.39 1461.68Z" fill="black"/>
<path d="M2254.27 1429.73C2261.08 1430.32 2269.5 1433.88 2273.47 1439.15" stroke="black" stroke-width="6" stroke-linecap="round"/>
<path d="M2216.46 1411.76C2211.3 1407.29 2202.88 1403.71 2196.34 1404.51" stroke="black" stroke-width="6" stroke-linecap="round"/>
<path d="M2245.04 1489.44C2248.44 1491.99 2253.28 1491.31 2255.84 1487.9C2258.39 1484.5 2257.71 1479.66 2254.3 1477.11C2250.9 1474.55 2246.06 1475.23 2243.5 1478.64C2240.95 1482.04 2241.63 1486.88 2245.04 1489.44Z" fill="#0E76D0"/>
<path d="M2184.87 1459.35C2188.27 1461.91 2193.11 1461.23 2195.67 1457.82C2198.22 1454.42 2197.54 1449.58 2194.13 1447.02C2190.73 1444.47 2185.89 1445.15 2183.33 1448.56C2180.78 1451.96 2181.46 1456.8 2184.87 1459.35Z" fill="#0E76D0"/>
<path d="M2349.33 1532.83C2369 1515.14 2381.39 1489.33 2381.39 1460.6C2381.39 1453.81 2380.7 1447.19 2379.39 1440.8C2435.63 1454.26 2533.81 1454.26 2495.8 1387.75C2466.01 1335.61 2411.08 1389.6 2372.68 1420.22C2357.58 1387.03 2324.44 1364 2285.98 1364C2257.96 1364 2239.61 1368.84 2221.52 1387.75C2227.39 1401.61 2255.11 1420.22 2297.07 1420.22C2329.49 1420.22 2348.14 1433.68 2334.28 1447.14C2323.2 1457.9 2313.3 1476.96 2309.74 1485.14C2303.67 1501.04 2303.09 1532.83 2349.33 1532.83Z" fill="black"/>
<path d="M2310.12 1509.02C2318.42 1515.2 2332.01 1510.98 2340.48 1499.6C2348.94 1488.23 2349.08 1474 2340.78 1467.82C2332.48 1461.64 2318.89 1465.86 2310.42 1477.24C2301.96 1488.61 2301.82 1502.84 2310.12 1509.02Z" fill="#0E76D0"/>
<path d="M2313.58 1487.41C2317.24 1482.84 2326.4 1476.41 2332.16 1475.59" stroke="black" stroke-width="6" stroke-linecap="round"/>
<path d="M2327.21 1477.99C2328.98 1480.63 2330.81 1486.42 2330.3 1489.53" stroke="black" stroke-width="6" stroke-linecap="round"/>
<path d="M1767 1230C1767 1250.99 1784.01 1268 1805 1268C1809.19 1268 1813.23 1267.32 1817 1266.07L1802.5 1192.08C1782.68 1193.37 1767 1209.85 1767 1230Z" fill="#DC34DF"/>
<path d="M1725 1533C1748.2 1533 1767 1514.2 1767 1491C1767 1467.8 1748.2 1449 1725 1449C1701.8 1449 1683 1467.8 1683 1491C1683 1514.2 1701.8 1533 1725 1533Z" fill="#DC34DF"/>
<path d="M2116 1635C2139.2 1635 2158 1616.2 2158 1593C2158 1569.8 2139.2 1551 2116 1551C2092.8 1551 2074 1569.8 2074 1593C2074 1616.2 2092.8 1635 2116 1635Z" fill="#DC34DF"/>
<path d="M2137 1907C2160.2 1907 2179 1888.2 2179 1865C2179 1841.8 2160.2 1823 2137 1823C2113.8 1823 2095 1841.8 2095 1865C2095 1888.2 2113.8 1907 2137 1907Z" fill="#DC34DF"/>
<path d="M2339 1997C2315.8 1997 2297 2015.31 2297 2038.5C2318 2043 2358.5 2054 2374.5 2061.5C2378.44 2055.1 2381 2047.07 2381 2039C2381 2015.81 2362.2 1997 2339 1997Z" fill="#DC34DF"/>
<path d="M2456 1811C2479.2 1811 2498 1792.2 2498 1769C2498 1745.8 2479.2 1727 2456 1727C2432.8 1727 2414 1745.8 2414 1769C2414 1792.2 2432.8 1811 2456 1811Z" fill="#DC34DF"/>
<path d="M2710.99 1756.56C2734.17 1757.16 2753.46 1738.84 2754.05 1715.66C2754.11 1713.45 2753.98 1711.77 2753.71 1709.65L2682.34 1684.3C2675.02 1691.64 2670.37 1702.31 2670.08 1713.49C2669.48 1736.68 2687.8 1755.96 2710.99 1756.56Z" fill="#DC34DF"/>
<path d="M2867 2139C2890.2 2139 2909 2120.2 2909 2097C2909 2073.8 2890.2 2055 2867 2055C2843.8 2055 2825 2073.8 2825 2097C2825 2120.2 2843.8 2139 2867 2139Z" fill="#DC34DF"/>
<path d="M593.079 1473.46L594.28 1472H596.173H1259C1400.39 1472 1515 1357.39 1515 1216V917C1515 775.615 1400.38 661 1259 661H395C253.615 661 139 775.615 139 917V1216C139 1357.39 253.615 1472 395 1472H425.1H429.691L429.062 1476.55L396.31 1713.49L593.079 1473.46Z" stroke="black" stroke-width="8"/>
<path d="M1000 1475.5L938.5 1333L428 1447L388.5 1726L595 1476.5L1000 1475.5Z" fill="black"/>
<path d="M1391.43 813.954L1358.33 878.086L1199.63 800.375C1204.14 786.533 1214.99 752.878 1222.25 728.997C1231.31 699.146 1203.88 609.99 1205.43 593.777C1206.98 577.565 1211.13 567.923 1222.3 567.293C1231.23 566.789 1257.01 602.958 1268.78 621.106L1281.78 565.725C1291.09 536.159 1314.82 474.99 1335.32 466.845C1355.83 458.699 1354 492.143 1350.52 509.883C1352.29 501.571 1359.54 483.17 1374.37 476.062C1389.19 468.954 1391.68 501.138 1391.08 518.119C1395.3 508.325 1406.6 489.964 1417.98 494.875C1429.37 499.786 1421.61 543.27 1416.31 564.398L1422.45 550.166C1426.74 538.949 1437.18 516.008 1444.59 513.977C1453.86 511.438 1456.98 523.132 1452.9 554.045C1448.82 584.958 1431.98 683.333 1432.83 741.964C1433.51 788.868 1405.52 809.501 1391.43 813.954Z" fill="#ED4546"/>
<path d="M1275.2 627.686C1287.6 641.021 1314.18 676.952 1321.29 713.997" stroke="black" stroke-width="8" stroke-linecap="round"/>
<path d="M1333.65 591.911L1347.87 522.351M1401.6 621.22L1412.8 577.586L1401.6 621.22ZM1370.84 607.951L1387.43 532.883L1370.84 607.951Z" stroke="black" stroke-width="8" stroke-linecap="round"/>
<path d="M412.5 820.5C475.7 774.5 666.833 727.667 754.5 710C795 701.345 874.5 710 902 734C929.5 758 984 878 1010 892.5C1036 907 1046 910.5 1105 878C1164 845.5 1185 752 1239 744C1282.2 737.6 1358.33 807.667 1391 843.5C1384.5 851.167 1368.6 871.7 1357 892.5C1342.5 918.5 1245.5 1043 1185 1103.5C1136.6 1151.9 998.167 1146.67 935 1138C938.167 1148.33 950.4 1177.8 974 1213C997.6 1248.2 1001.5 1273.67 1000.5 1282C891 1421 571 1433 549 1433C527 1433 318 1482.5 187.5 1433C56.9999 1383.5 148 1217.5 166 1184C184 1150.5 333.5 878 412.5 820.5Z" fill="#3D98E7"/>
<path d="M692.452 1094.11C715.38 1106.63 742.343 1109.53 767.409 1102.17C792.474 1094.81 813.589 1077.79 826.109 1054.86C838.628 1031.93 841.527 1004.97 834.167 979.905C826.807 954.84 809.791 933.725 786.862 921.205L768.558 954.727C782.596 962.392 793.014 975.32 797.521 990.666C802.027 1006.01 800.252 1022.52 792.587 1036.56C784.922 1050.6 771.994 1061.01 756.648 1065.52C741.302 1070.03 724.794 1068.25 710.756 1060.59L692.452 1094.11Z" fill="#0E76D0"/>
<path d="M406.061 1372.07C410.577 1346.34 404.686 1319.87 389.685 1298.48C374.684 1277.09 351.801 1262.54 326.07 1258.03C300.34 1253.51 273.869 1259.4 252.482 1274.4C231.095 1289.4 216.542 1312.29 212.027 1338.02L249.645 1344.62C252.41 1328.87 261.319 1314.86 274.414 1305.67C287.508 1296.49 303.715 1292.88 319.468 1295.65C335.222 1298.41 349.232 1307.32 358.416 1320.41C367.601 1333.51 371.207 1349.71 368.443 1365.47L406.061 1372.07Z" fill="#0E76D0"/>
<path d="M1096.23 897.661C1089.01 922.767 1092.06 949.713 1104.7 972.572C1117.35 995.432 1138.56 1012.33 1163.66 1019.55C1188.77 1026.78 1215.71 1023.73 1238.57 1011.08C1261.43 998.438 1278.33 977.23 1285.55 952.124L1248.85 941.565C1244.43 956.936 1234.08 969.921 1220.08 977.663C1206.09 985.405 1189.59 987.271 1174.22 982.849C1158.85 978.427 1145.86 968.08 1138.12 954.084C1130.38 940.089 1128.51 923.591 1132.94 908.22L1096.23 897.661Z" fill="#0E76D0"/>
<path d="M781.958 1430.47C796.102 1408.51 800.942 1381.83 795.412 1356.3C789.883 1330.76 774.438 1308.47 752.474 1294.33C730.51 1280.19 703.828 1275.35 678.296 1280.88C652.764 1286.4 630.474 1301.85 616.33 1323.81L648.441 1344.49C657.101 1331.05 670.748 1321.59 686.38 1318.2C702.012 1314.82 718.348 1317.78 731.795 1326.44C745.243 1335.1 754.699 1348.75 758.084 1364.38C761.47 1380.01 758.506 1396.35 749.847 1409.8L781.958 1430.47Z" fill="#0E76D0"/>
<path d="M829.453 797.425C854.75 803.947 881.601 800.153 904.1 786.877C912.991 781.63 920.915 775.074 927.649 767.5C927.649 767.5 919.742 755.368 915 749C910.493 742.947 904.1 735.678 904.1 735.678C899.125 743.082 892.521 749.363 884.691 753.983C870.916 762.111 854.476 764.434 838.988 760.441C823.5 756.448 810.233 746.466 802.105 732.691C797.349 724.632 794.581 715.66 793.902 706.5C781 706.5 764.845 708.167 755.865 710C757.059 724.725 761.561 739.136 769.211 752.101C782.487 774.6 804.157 790.904 829.453 797.425Z" fill="#0E76D0"/>
<path d="M346.127 1066.93C320.327 1071.04 293.954 1064.72 272.81 1049.38C265.713 1044.23 259.401 1038.21 253.99 1031.5L276.168 995.5C280.462 1004.55 286.984 1012.48 295.24 1018.47C308.186 1027.86 324.332 1031.73 340.128 1029.22C355.924 1026.7 370.075 1018.02 379.468 1005.07C388.861 992.128 392.727 975.981 390.215 960.185L427.934 954.187C432.037 979.987 425.723 1006.36 410.381 1027.5C395.039 1048.65 371.926 1062.83 346.127 1066.93Z" fill="#0E76D0"/>
<path d="M926 1114.5C888 1042 886.2 961.2 865 892" stroke="black" stroke-width="8" stroke-linecap="round"/>
<path d="M523 938C519.333 982.167 470.1 1170.6 452.5 1227" stroke="black" stroke-width="8" stroke-linecap="round"/>
<path d="M383.307 1217C427.109 1223.74 528.472 1242.61 583.503 1264.11" stroke="black" stroke-width="8" stroke-linecap="round"/>
<path d="M577.84 1313.29C525.484 1338.33 499.981 1413.95 524.223 1432.79L596.093 1444.77C647.524 1448.47 758.257 1455.6 789.743 1454.46C821.229 1453.32 822.066 1439.54 818.548 1432.79C824.442 1432.79 838.056 1431.82 845.357 1427.94C860.415 1420.64 855.624 1408.93 851.346 1403.98C854.578 1403.98 867.043 1403.98 872.166 1392.85C878.777 1378.48 857.811 1369.57 845.357 1368.9C848.969 1364.44 852.161 1356.44 840.509 1350.08C818.548 1338.09 768.638 1332.68 750.386 1332.68C747.876 1319.68 729.376 1314.34 720.44 1313.29C685.17 1306.07 630.602 1309.3 577.84 1313.29Z" fill="#ED4546"/>
<path d="M739.833 1332.97C724.622 1330.69 708.005 1327.44 693.631 1328.12" stroke="black" stroke-width="8" stroke-linecap="round"/>
<path d="M835.66 1367.48C813.985 1361.49 767.212 1352.65 742.115 1355.5" stroke="black" stroke-width="8" stroke-linecap="round"/>
<path d="M835.66 1397.42C815.835 1391.97 773.056 1383.92 750.101 1386.52" stroke="black" stroke-width="8" stroke-linecap="round"/>
<path d="M808.851 1425.94C791.141 1421.04 752.924 1413.79 732.418 1416.13" stroke="black" stroke-width="8" stroke-linecap="round"/>
<path d="M634.339 518C677.49 518 697.68 529.481 729.351 586.092C745.427 614.826 754.586 658.935 740.04 673.583C730.926 682.76 709.268 692.738 686.992 700.108L692.93 718.317C692.93 718.317 722 737.5 701.5 768C660.724 828.667 584.598 781.879 591.188 745.633C592.455 738.666 578.256 703.53 570.998 686.833C551.326 669.139 538.931 643.333 538.931 614.596C538.931 561.248 581.647 518 634.339 518Z" fill="#ED4546"/>
<path d="M718.863 623.944L693.882 600.327L696.879 633.349L718.863 623.944Z" fill="#D7090A"/>
<path d="M696.388 602.203L720.212 623.393L698.172 632.248" stroke="black" stroke-width="6" stroke-linecap="round"/>
<path d="M699.648 654.611L724.541 642.911C724.24 646.928 721.495 654.533 717.269 657.479C710.288 662.345 704.041 657.986 699.648 654.611Z" stroke="black" stroke-width="6"/>
<path d="M724.817 590.766C721.511 593.251 716.816 592.586 714.33 589.279C711.845 585.973 712.51 581.278 715.817 578.792C719.123 576.306 723.818 576.972 726.304 580.278C728.789 583.585 728.124 588.28 724.817 590.766Z" fill="black"/>
<path d="M674.936 615.673C671.63 618.158 666.935 617.493 664.449 614.186C661.964 610.88 662.629 606.185 665.936 603.699C669.242 601.214 673.937 601.879 676.423 605.186C678.908 608.492 678.243 613.187 674.936 615.673Z" fill="black"/>
<path d="M666.051 583.731C659.247 584.321 650.825 587.884 646.849 593.145" stroke="black" stroke-width="6" stroke-linecap="round"/>
<path d="M703.867 565.763C709.023 561.285 717.441 557.711 723.986 558.513" stroke="black" stroke-width="6" stroke-linecap="round"/>
<path d="M675.284 643.437C671.879 645.996 667.043 645.311 664.484 641.906C661.924 638.501 662.61 633.666 666.015 631.107C669.419 628.547 674.255 629.232 676.814 632.637C679.374 636.042 678.688 640.877 675.284 643.437Z" fill="#D7090A"/>
<path d="M735.458 613.35C732.053 615.91 727.217 615.224 724.658 611.819C722.098 608.414 722.784 603.579 726.189 601.02C729.593 598.46 734.429 599.145 736.988 602.55C739.548 605.955 738.862 610.79 735.458 613.35Z" fill="#D7090A"/>
<path d="M570.998 686.833C551.326 669.139 538.931 643.333 538.931 614.596C538.931 607.812 538.792 601.802 540.5 593.5C542.207 585.199 547.642 574.216 547.642 574.216C562.745 541.033 595.885 518 634.339 518C662.367 518 680.708 522.844 698.801 541.753C692.93 555.609 665.217 574.216 623.253 574.216C590.838 574.216 572.184 587.676 586.04 601.136C597.125 611.904 607.022 630.959 610.585 639.141C616.656 655.038 617.238 686.833 570.998 686.833Z" fill="black"/>
<path d="M610.205 663.017C601.904 669.194 588.313 664.979 579.847 653.603C571.381 642.227 571.247 627.998 579.547 621.821C587.847 615.644 601.439 619.859 609.905 631.235C618.371 642.611 618.505 656.841 610.205 663.017Z" fill="#D7090A"/>
<path d="M606.742 641.405C603.08 636.837 593.92 630.411 588.167 629.594" stroke="black" stroke-width="6" stroke-linecap="round"/>
<path d="M593.117 631.988C591.348 634.626 589.511 640.414 590.024 643.525" stroke="black" stroke-width="6" stroke-linecap="round"/>
</svg>
