<svg xmlns="http://www.w3.org/2000/svg" width="1024" height="1024">
<defs>
<linearGradient id="grad52" x1="600.118" y1="326.537" x2="539.114" y2="394.062" gradientUnits="userSpaceOnUse">
<stop offset="0%" style="stop-color: rgb(252, 206, 89);" />
<stop offset="100%" style="stop-color: rgb(246, 148, 140);" />
</linearGradient>
</defs>
<defs>
<linearGradient id="grad54" x1="529.007" y1="293.535" x2="376.052" y2="409.591" gradientUnits="userSpaceOnUse">
<stop offset="0%" style="stop-color: rgb(211, 118, 170);" />
<stop offset="100%" style="stop-color: rgb(127, 124, 235);" />
</linearGradient>
</defs>
<defs>
<linearGradient id="grad87" x1="683.274" y1="416.151" x2="621.2" y2="478.527" gradientUnits="userSpaceOnUse">
<stop offset="0%" style="stop-color: rgb(252, 205, 97);" />
<stop offset="100%" style="stop-color: rgb(250, 157, 129);" />
</linearGradient>
</defs>
<defs>
<linearGradient id="grad88" x1="393.232" y1="409.286" x2="306.309" y2="460.719" gradientUnits="userSpaceOnUse">
<stop offset="0%" style="stop-color: rgb(128, 125, 235);" />
<stop offset="100%" style="stop-color: rgb(69, 167, 247);" />
</linearGradient>
</defs>
<defs>
<linearGradient id="grad97" x1="506.544" y1="406.479" x2="391.943" y2="493.672" gradientUnits="userSpaceOnUse">
<stop offset="0%" style="stop-color: rgb(173, 98, 211);" />
<stop offset="100%" style="stop-color: rgb(115, 135, 239);" />
</linearGradient>
</defs>
<defs>
<linearGradient id="grad98" x1="594.544" y1="436.105" x2="551.385" y2="461.351" gradientUnits="userSpaceOnUse">
<stop offset="0%" style="stop-color: rgb(251, 160, 131);" />
<stop offset="100%" style="stop-color: rgb(241, 138, 147);" />
</linearGradient>
</defs>
<defs>
<linearGradient id="grad110" x1="741.589" y1="469.114" x2="707.69" y2="495.569" gradientUnits="userSpaceOnUse">
<stop offset="0%" style="stop-color: rgb(253, 218, 80);" />
<stop offset="100%" style="stop-color: rgb(253, 193, 105);" />
</linearGradient>
</defs>
<defs>
<linearGradient id="grad112" x1="312.107" y1="450.416" x2="245.282" y2="477.219" gradientUnits="userSpaceOnUse">
<stop offset="0%" style="stop-color: rgb(53, 176, 248);" />
<stop offset="100%" style="stop-color: rgb(3, 214, 255);" />
</linearGradient>
</defs>
<defs>
<linearGradient id="grad135" x1="315.868" y1="543.773" x2="265.211" y2="559.358" gradientUnits="userSpaceOnUse">
<stop offset="0%" style="stop-color: rgb(26, 193, 253);" />
<stop offset="100%" style="stop-color: rgb(2, 214, 255);" />
</linearGradient>
</defs>
<defs>
<linearGradient id="grad136" x1="391.247" y1="579.063" x2="329.504" y2="595.912" gradientUnits="userSpaceOnUse">
<stop offset="0%" style="stop-color: rgb(88, 151, 243);" />
<stop offset="100%" style="stop-color: rgb(40, 184, 252);" />
</linearGradient>
</defs>
<defs>
<linearGradient id="grad137" x1="386.915" y1="556.74" x2="509.041" y2="587.741" gradientUnits="userSpaceOnUse">
<stop offset="0%" style="stop-color: rgb(110, 139, 239);" />
<stop offset="100%" style="stop-color: rgb(158, 107, 221);" />
</linearGradient>
</defs>
<defs>
<linearGradient id="grad140" x1="593.571" y1="526.75" x2="518.017" y2="587.582" gradientUnits="userSpaceOnUse">
<stop offset="0%" style="stop-color: rgb(251, 188, 175);" />
<stop offset="100%" style="stop-color: rgb(226, 145, 190);" />
</linearGradient>
</defs>
<defs>
<linearGradient id="grad141" x1="628.027" y1="529.163" x2="516.498" y2="615.431" gradientUnits="userSpaceOnUse">
<stop offset="0%" style="stop-color: rgb(249, 152, 136);" />
<stop offset="100%" style="stop-color: rgb(201, 94, 189);" />
</linearGradient>
</defs>
<defs>
<linearGradient id="grad142" x1="713.863" y1="542.064" x2="630.829" y2="632.808" gradientUnits="userSpaceOnUse">
<stop offset="0%" style="stop-color: rgb(251, 161, 129);" />
<stop offset="100%" style="stop-color: rgb(247, 79, 155);" />
</linearGradient>
</defs>
<defs>
<linearGradient id="grad143" x1="775.786" y1="532.231" x2="716.321" y2="581.149" gradientUnits="userSpaceOnUse">
<stop offset="0%" style="stop-color: rgb(252, 206, 95);" />
<stop offset="100%" style="stop-color: rgb(250, 155, 128);" />
</linearGradient>
</defs>
<defs>
<linearGradient id="grad150" x1="537.765" y1="626.243" x2="602.438" y2="687.386" gradientUnits="userSpaceOnUse">
<stop offset="0%" style="stop-color: rgb(200, 69, 188);" />
<stop offset="100%" style="stop-color: rgb(244, 54, 160);" />
</linearGradient>
</defs>
<defs>
<linearGradient id="grad152" x1="394.133" y1="613.749" x2="506.688" y2="623.769" gradientUnits="userSpaceOnUse">
<stop offset="0%" style="stop-color: rgb(97, 143, 242);" />
<stop offset="100%" style="stop-color: rgb(144, 88, 221);" />
</linearGradient>
</defs>
<defs>
<linearGradient id="grad166" x1="448.159" y1="705.904" x2="511.352" y2="721.125" gradientUnits="userSpaceOnUse">
<stop offset="0%" style="stop-color: rgb(119, 102, 232);" />
<stop offset="100%" style="stop-color: rgb(144, 64, 219);" />
</linearGradient>
</defs>
<defs>
</defs>
<path d="M894,519 C894,519 892,521 892,521 C891.322,514.904 893.192,508.531 891,502.5 C891,502.5 518.5,131 518.5,131 C512.068,131.581 504.981,129.346 499.5,133 C499.5,133 207,425 207,425 C298.011,333.978 387.507,237.606 480.5,149 C483.295,146.337 499.212,130.493 500.5,130 C502.286,129.316 508.983,130.935 510,129.5 C512.693,125.702 506.841,64.5868 511.5,55 C515.561,68.8137 507.804,118.913 512,128.5 C513.186,131.21 520.832,128.884 523.5,132 C523.5,132 892,501.5 892,501.5 C893.123,503.308 892.93,509.195 894.5,510 C898.726,512.168 961,507.175 961,510.5 C961,510.5 894.5,511 894.5,511 C893.589,511.645 893.984,517.404 894,519 Z " fill="rgb(108,83,251)"/>
<path d="M436,135 C435.339,135.659 434.663,136.339 434,137 C426.424,133.143 428.605,138.817 427,144 C426.671,144.328 426.332,144.669 426,145 C425.596,143.138 426.572,138.794 426,137.5 C424.939,135.099 420.117,136.181 418,136 C386.851,133.331 347.044,135.791 315,136 C315,136 315,134 315,134 C351.818,133.92 388.669,134.06 425.5,134 C425.5,134 426,120 426,120 C426.668,101.257 424.041,81.6894 428,63.5 C429.54,72.0779 425.987,130.637 428,133.5 C428.923,134.813 434.158,133.067 436,135 Z " fill="rgb(120,73,252)"/>
<path d="M131,185 C131.308,188.387 130.528,191.651 132,195 C131.632,195.544 131.256,196.358 131,197 C125.516,210.763 133.043,253.876 131,270.5 C131,270.5 135,272.5 135,272.5 C133.155,268.904 140.194,243.797 141.5,243 C141.983,242.705 144.451,241.394 144,243.5 C134.929,259.388 134.533,276.916 139,294.5 C134.073,292.359 137.7,278.141 130,284 C129.353,282.838 129.221,283.198 129,283 C128.131,282.222 119.823,279.16 118,277.5 C118.309,273.312 128.327,270.295 129,268.5 C131.17,262.714 127.954,243.113 128,236 C128.004,235.339 128,234.661 128,234 C128,228.541 130.108,200.678 129,197.5 C128.505,196.081 118.992,195.364 120,189.5 C120.479,186.711 127.784,184.919 128,184.5 C128.963,182.633 129.688,144.485 129,142.5 C128.185,140.148 105.57,141.116 129,126.5 C130.933,109.202 126.062,83.6922 129,67.5 C129.26,66.0668 128.463,63.9985 131,65.5 C131,65.5 130,128.5 130,128.5 C144.299,134.564 130.54,140.439 130,142.5 C128.61,147.808 130.351,177.873 131,185 Z M131.5,132 C130.918,132.29 129.12,138.792 130.5,140 C132.95,141.962 136.478,129.525 131.5,132 Z " fill="rgb(136,52,234)"/>
<path d="M539,89 C532.565,86.3549 526.505,92.3821 530,99.5 C532.393,104.372 559.046,127.896 565,134 C661.018,232.439 759.966,328.058 856.5,426 C856.5,426 864.5,428 864.5,428 C867.886,425.342 868.393,422.08 868,418 C869.284,419.235 869.771,420.458 870.5,422 C881.661,422.141 892.851,421.808 904,422 C904,422 904,424 904,424 C896.013,424.168 876.657,422.468 870.5,424 C867.876,424.653 867.991,430.45 859.5,429 C857.436,428.647 852.918,424.101 852.5,424 C846.117,422.456 833.995,422.297 827,421 C829.047,419.435 831.579,415.392 835,416 C838.589,418.461 841.463,425.823 850,421.5 C850,421.5 529,100.5 529,100.5 C526.824,95.9986 525.952,93.7746 529,89.5 C531.822,88.1086 536.701,84.5911 539,89 Z " fill="rgb(45,11,171)"/>
<path d="M493,93 C493,93 492,93 492,93 C487.214,88.9103 487.704,87.6832 482,91 C481.64,91.2095 480.211,90.802 480,91 C485.378,87.6082 489.219,85.1284 493,93 Z " fill="rgb(83,33,187)"/>
<path d="M492,93 C492,93 491,100 491,100 C479.009,111.628 466.799,123.184 455,135 C455,135 448,126 448,126 C449.65,124.321 451.371,122.665 453,121 C457.92,134.831 465.173,128.726 454,120 C462.584,111.218 469.954,100.367 480,93 C480.647,92.5254 482.049,92.218 482,91 C487.704,87.6832 487.214,88.9103 492,93 Z " fill="rgb(250,137,75)"/>
<path d="M539,89 C541.29,89.9412 568.111,120.208 573,125 C573,125 565,134 565,134 C559.046,127.896 532.393,104.372 530,99.5 C526.505,92.3821 532.565,86.3549 539,89 Z " fill="rgb(252,165,63)"/>
<path d="M868,418 C768.176,321.856 671.971,222.006 573,125 C568.111,120.208 541.29,89.9412 539,89 C651.806,195.365 756.335,310.543 868,418 Z " fill="rgb(63,7,187)"/>
<path d="M480,93 C469.954,100.367 462.584,111.218 454,120 C453.684,120.323 453.336,120.657 453,121 C451.371,122.665 449.65,124.321 448,126 C426.468,147.908 399.29,170.703 380,194 C380,194 379,194 379,194 C378.925,193.366 379.133,192.136 379,192 C395.399,177.097 410.323,160.621 426,145 C426.332,144.669 426.671,144.328 427,144 C429.33,141.676 431.673,139.322 434,137 C434.663,136.339 435.339,135.659 436,135 C447.039,123.993 468.455,98.2813 480,91 C479.875,91.1177 480.071,92.3599 480,93 Z " fill="rgb(55,15,183)"/>
<path d="M482,91 C482.049,92.218 480.647,92.5254 480,93 C480.071,92.3599 479.875,91.1177 480,91 C480.211,90.802 481.64,91.2095 482,91 Z " fill="rgb(207,99,72)"/>
<path d="M493,94 C493,94 493,98 493,98 C492.791,98.7341 493.516,100.05 492,100 C492,100 491,100 491,100 C491,100 492,93 492,93 C492,93 493,93 493,93 C493.119,93.2473 492.902,93.6716 493,94 Z " fill="rgb(160,47,86)"/>
<path d="M493,98 C493,98 493,94 493,94 C493.836,96.8116 493.783,95.2439 493,98 Z " fill="rgb(109,70,194)"/>
<path d="M492,100 C492,100 173,421 173,421 C172.762,420.82 171.087,421.368 171,420.5 C171,420.5 386,204 386,204 C405.927,190.466 436.435,153.592 455,135 C466.799,123.184 479.009,111.628 491,100 C491,100 492,100 492,100 Z " fill="rgb(12,2,230)"/>
<path d="M258,133 C258,133 258.5,135 258.5,135 C277.385,134.82 296.103,134.041 315,134 C315,134 315,136 315,136 C312.678,136.015 310.322,135.98 308,136 C291.354,136.142 274.634,135.481 258,136.5 C258,136.5 259,190 259,190 C258.355,190 257.64,189.999 257,190 C257,190 257,136.5 257,136.5 C256.282,135.487 245.211,136.083 243,136 C240.021,135.888 236.983,136.066 234,136 C234,136 234,135 234,135 C249.185,134.614 260.364,140.654 257,120 C257,120 258,133 258,133 Z " fill="rgb(165,118,253)"/>
<path d="M257,120 C260.364,140.654 249.185,134.614 234,135 C205.72,135.719 177.29,134.464 149,135 C149.332,134.283 148.838,132.795 150.5,132 C162.998,129.692 250.258,135.008 254.5,132 C256.488,130.59 252.737,119.455 257,120 Z " fill="rgb(238,235,246)"/>
<path d="M426,120 C426,120 425.5,134 425.5,134 C388.669,134.06 351.818,133.92 315,134 C296.103,134.041 277.385,134.82 258.5,135 C258.5,135 258,133 258,133 C258,133 423.5,132 423.5,132 C423.5,132 426,120 426,120 Z " fill="rgb(238,235,246)"/>
<path d="M453,121 C453.336,120.657 453.684,120.323 454,120 C465.173,128.726 457.92,134.831 453,121 Z " fill="rgb(204,107,151)"/>
<path d="M868,418 C868.393,422.08 867.886,425.342 864.5,428 C864.5,428 856.5,426 856.5,426 C759.966,328.058 661.018,232.439 565,134 C565,134 573,125 573,125 C671.971,222.006 768.176,321.856 868,418 Z " fill="rgb(250,106,100)"/>
<path d="M455,135 C436.435,153.592 405.927,190.466 386,204 C383.784,205.505 381.07,206.359 379.5,209 C370.602,199.86 373.202,202.21 380,194 C399.29,170.703 426.468,147.908 448,126 C448,126 455,135 455,135 Z " fill="rgb(204,107,151)"/>
<path d="M892,521 C893.259,532.32 894.9,543.593 895,555 C881.506,568.031 869.313,582.806 855,595 C846.179,596.617 828.592,594.357 832,581.5 C833.885,574.388 884.687,534.289 889.5,522 C889.5,522 520,891 520,891 C514.868,892.735 511.055,888 510.5,888 C509.97,888 508.857,893.158 501.5,891 C501.5,891 133,522.5 133,522.5 C133,522.5 131,512.5 131,512.5 C131,512.5 135,512 135,512 C135.062,515.312 134.004,519.545 137,522 C137,522 503.5,887 503.5,887 C510.008,885.513 517.011,888.72 522.5,885 C522.5,885 883,523 883,523 C888.534,520.41 885.873,516.823 886,511.5 C886.037,509.925 886.378,512.511 886,509.5 C885.605,506.353 887.19,502.432 884,500 C884,500 520,137 520,137 C516.236,134.952 511.234,135.138 509.5,139 C510.776,133.637 501.793,135.838 498.5,138 C498.5,138 135,502.5 135,502.5 C134.871,504.648 135.186,506.871 135,509 C130.597,512.256 130.268,505.042 131,502.5 C133.189,494.898 203.745,434.564 205,427 C205,427 207,425 207,425 C207,425 499.5,133 499.5,133 C504.981,129.346 512.068,131.581 518.5,131 C518.5,131 891,502.5 891,502.5 C893.192,508.531 891.322,514.904 892,521 Z " fill="rgb(229,219,250)"/>
<path d="M131.5,132 C136.478,129.525 132.95,141.962 130.5,140 C129.12,138.792 130.918,132.29 131.5,132 Z " fill="rgb(224,56,181)"/>
<path d="M234,135 C234,135 234,136 234,136 C205.711,135.37 177.296,136.47 149,136 C148.987,135.691 148.917,135.18 149,135 C177.29,134.464 205.72,135.719 234,135 Z " fill="rgb(114,66,255)"/>
<path d="M234,136 C236.983,136.066 240.021,135.888 243,136 C243,136 148.5,138 148.5,138 C147.3,137.58 149.041,136.959 149,136 C177.296,136.47 205.711,135.37 234,136 Z " fill="rgb(247,251,247)"/>
<path d="M308,136 C308,136 418,136 418,136 C420.117,136.181 424.939,135.099 426,137.5 C426.572,138.794 425.596,143.138 426,145 C410.323,160.621 395.399,177.097 379,192 C377.216,190.171 369.898,191.068 367,191 C367,191 261,191 261,191 C260.051,191 259.949,190 259,190 C259,190 258,136.5 258,136.5 C274.634,135.481 291.354,136.142 308,136 Z " fill="rgb(228,220,251)"/>
<path d="M315,136 C347.044,135.791 386.851,133.331 418,136 C418,136 308,136 308,136 C310.322,135.98 312.678,136.015 315,136 Z " fill="rgb(246,249,248)"/>
<path d="M434,137 C431.673,139.322 429.33,141.676 427,144 C428.605,138.817 426.424,133.143 434,137 Z " fill="rgb(230,234,245)"/>
<path d="M520,137 C520,137 520,138 520,138 C520,138 513,137.5 513,137.5 C513,137.5 883.5,510 883.5,510 C886.843,508.322 884.783,502.785 883,501 C883,501 884,500 884,500 C887.19,502.432 885.605,506.353 886,509.5 C886.378,512.511 886.037,509.925 886,511.5 C885.873,516.823 888.534,520.41 883,523 C883,523 882,523 882,523 C885.343,518.061 884.764,517.668 883.5,511 C882.636,513.476 883.292,516.071 882,518.5 C873.695,534.115 824.39,572.678 809.5,591 C808.243,592.547 806.269,593.798 810,594 C809.337,594.669 808.656,595.339 808,596 C808,596 804,596.5 804,596.5 C804,596.5 518.5,882 518.5,882 C518.5,882 503.5,882 503.5,882 C503.5,882 140,518.5 140,518.5 C140,518.5 138.5,511 138.5,511 C138.5,511 138,521 138,521 C138,521 137,522 137,522 C134.004,519.545 135.062,515.312 135,512 C134.982,511.019 134.915,509.972 135,509 C135.186,506.871 134.871,504.648 135,502.5 C135,502.5 498.5,138 498.5,138 C501.793,135.838 510.776,133.637 509.5,139 C511.234,135.138 516.236,134.952 520,137 Z M142,503 C141.247,504.83 139.96,508.801 142.5,510 C151.272,514.142 211.031,506.848 225,510 C225,510 225,511 225,511 C225,511 142.5,511 142.5,511 C142.5,511 141,516.5 141,516.5 C141,516.5 503.5,880 503.5,880 C516.686,882.285 507.659,873.034 512.5,866 C512.5,866 513.5,881 513.5,881 C513.5,881 518.5,880 518.5,880 C518.5,880 880,518.5 880,518.5 C880,518.5 880.5,511 880.5,511 C880.5,511 795.5,511 795.5,511 C790.37,516.058 785.495,521.327 780,526 C780,526 792,511 792,511 C792.353,510.959 792.755,511.091 793,511 C794.352,510.499 794.147,510.261 794,509 C794,509 879.5,510 879.5,510 C879.5,510 880,504.5 880,504.5 C880,504.5 515.5,140 515.5,140 C515.5,140 512,140.5 512,140.5 C512,140.5 511.5,149 511.5,149 C508.271,143.902 513.991,135.867 503.5,142 C490.954,149.334 446.078,199.058 432,213 C432,213 508,138.5 508,138.5 C508,138.5 501.5,138 501.5,138 C501.5,138 137,503.5 137,503.5 C137,503.5 137,509.5 137,509.5 C137,509.5 142,503 142,503 Z " fill="rgb(104,72,247)"/>
<path d="M432,213 C429.994,214.986 427.997,217.024 426,219 C426,219 423,222 423,222 C421.326,223.654 419.664,225.357 418,227 C418,227 415,230 415,230 C413.658,231.324 412.33,232.687 411,234 C411,234 408,237 408,237 C405.655,239.32 403.334,241.686 401,244 C401,244 399,246 399,246 C395.003,249.974 391.005,254.052 387,258 C387,258 382,263 382,263 C380.991,263.942 379.676,265.434 379,266 C377.421,267.322 377.589,267.432 377,268 C376.738,268.253 374.353,267.294 375,270 C370.605,273.802 367.11,278.027 363,282 C358.018,282.999 355.634,288.997 353,292 C348.862,295.899 346.044,296.088 343,302 C342.441,302.571 341.56,303.459 341,304 C340.321,304.656 339.644,305.391 339,306 C339,306 333,312 333,312 C332.203,312.617 332.058,312.96 332,313 C331.283,313.49 328.369,312.972 329,316 C327.415,317.29 326.382,318.802 325,320 C322.255,319.431 323.36,321.455 323,322 C321.741,323.119 316.641,324.34 317,328 C316.169,328.672 315.627,329.484 315,330 C314.638,330.298 312.382,329.272 313,332 C309.795,334.441 307.74,337.195 305,340 C305,340 303,342 303,342 C301.647,343.308 300.324,344.74 299,346 C295.787,345.368 295.628,349.194 295,350 C294.115,350.819 291.626,352.565 290,354 C288.795,355.063 288.078,355.88 287,357 C285.605,358.449 282.741,359.234 283,362 C277.281,367.114 272.383,372.608 267,378 C267,378 262,383 262,383 C261.628,383.353 261.207,383.819 261,384 C259.77,385.078 259.275,385.757 259,386 C258.18,386.726 257.37,387.695 257,388 C256.638,388.298 254.382,387.272 255,390 C253.238,391.341 252.458,392.525 251,394 C251,394 246,399 246,399 C245.435,399.489 245.056,399.956 245,400 C243.08,401.499 243.571,401.45 243,402 C242.738,402.253 240.353,401.293 241,404 C238.33,406.31 236.229,408.222 234,411 C231.06,410.214 231.232,413.761 231,414 C230.365,414.654 229.66,415.326 229,416 C228.305,416.71 227.782,417.157 227,418 C226.387,418.661 225.679,419.252 225,420 C224.707,420.322 223.859,421.077 223,422 C222.399,422.646 221.663,423.294 221,424 C216.29,425.498 213.271,430.753 210,434 C203.323,440.628 197.396,447.162 191,454 C189.544,455.557 188.813,456.665 187,458 C186.072,458.684 182.418,458.772 183,462 C182.672,462.318 182.38,462.645 182,463 C179.587,462.494 179.154,464.903 178,466 C177.352,466.615 176.645,467.379 176,468 C167.406,476.274 157.865,484.101 151,494 C149.376,495.761 147.619,497.012 146,499 C146,499 143,502 143,502 C142.966,502.062 142.56,501.64 142,503 C142,503 137,509.5 137,509.5 C137,509.5 137,503.5 137,503.5 C137,503.5 501.5,138 501.5,138 C501.5,138 508,138.5 508,138.5 C508,138.5 432,213 432,213 Z " fill="rgb(225,214,249)"/>
<path d="M520,138 C520,138 883,501 883,501 C884.783,502.785 886.843,508.322 883.5,510 C883.5,510 513,137.5 513,137.5 C513,137.5 520,138 520,138 Z " fill="rgb(231,218,248)"/>
<path d="M884,500 C884,500 883,501 883,501 C883,501 520,138 520,138 C520,138 520,137 520,137 C520,137 884,500 884,500 Z " fill="rgb(47,19,236)"/>
<path d="M794,509 C710.371,424.41 627.619,338.602 542,256 C534.235,248.509 526.834,240.31 519,233 C519,233 510.5,223 510.5,223 C510.5,223 225,510 225,510 C211.031,506.848 151.272,514.142 142.5,510 C139.96,508.801 141.247,504.83 142,503 C142.56,501.64 142.966,502.062 143,502 C143.101,501.814 145.176,500.012 146,499 C147.619,497.012 149.376,495.761 151,494 C159.038,485.281 169.537,478.24 176,468 C176.645,467.379 177.352,466.615 178,466 C180.398,466.527 180.886,464.041 182,463 C182.38,462.645 182.672,462.318 183,462 C184.3,460.739 186.405,459.99 187,458 C188.813,456.665 189.544,455.557 191,454 C198.668,448.704 203.692,440.511 210,434 C213.295,430.599 217.515,427.709 221,424 C221.663,423.294 222.399,422.646 223,422 C223,422 225,420 225,420 C225.679,419.252 226.387,418.661 227,418 C227,418 229,416 229,416 C229.66,415.326 230.365,414.654 231,414 C232.585,413.681 233.151,412.058 234,411 C236.229,408.222 238.33,406.31 241,404 C241.795,403.312 242.336,402.599 243,402 C243.438,401.605 245.123,401.224 245,400 C245.056,399.956 245.435,399.489 246,399 C247.94,397.32 249.249,395.771 251,394 C252.458,392.525 253.238,391.341 255,390 C255.595,389.547 257.068,389.218 257,388 C257.37,387.695 258.18,386.726 259,386 C259,386 261,384 261,384 C261.207,383.819 261.628,383.353 262,383 C263.767,381.323 265.301,379.702 267,378 C272.383,372.608 277.281,367.114 283,362 C284.556,360.609 287.162,359.704 287,357 C288.078,355.88 288.795,355.063 290,354 C292.622,354.092 293.7,351.669 295,350 C296.432,348.675 297.645,347.289 299,346 C300.324,344.74 301.647,343.308 303,342 C303.717,341.307 304.308,340.709 305,340 C307.74,337.195 309.795,334.441 313,332 C313.595,331.547 315.068,331.218 315,330 C315.627,329.484 316.169,328.672 317,328 C319.323,326.121 321.321,324.546 323,322 C323.739,321.343 324.379,320.539 325,320 C326.382,318.802 327.415,317.29 329,316 C330.047,315.148 331.688,314.588 332,313 C332.058,312.96 332.203,312.617 333,312 C335.448,310.104 336.872,308.014 339,306 C339.644,305.391 340.321,304.656 341,304 C342.184,303.925 342.547,302.88 343,302 C346.349,298.577 349.787,295.663 353,292 C356.47,288.73 359.613,285.273 363,282 C367.11,278.027 370.605,273.802 375,270 C375.795,269.312 376.336,268.599 377,268 C377.438,267.605 379.123,267.224 379,266 C379.676,265.434 380.991,263.942 382,263 C383.787,261.332 385.296,259.68 387,258 C391.005,254.052 395.003,249.974 399,246 C399.665,245.339 400.341,244.654 401,244 C403.334,241.686 405.655,239.32 408,237 C409.003,236.008 410.007,234.981 411,234 C412.33,232.687 413.658,231.324 415,230 C416.007,229.006 417.005,227.982 418,227 C419.664,225.357 421.326,223.654 423,222 C424.006,221.006 425.005,219.984 426,219 C427.997,217.024 429.994,214.986 432,213 C446.078,199.058 490.954,149.334 503.5,142 C513.991,135.867 508.271,143.902 511.5,149 C511.5,149 512,140.5 512,140.5 C512,140.5 515.5,140 515.5,140 C515.5,140 880,504.5 880,504.5 C880,504.5 879.5,510 879.5,510 C879.5,510 794,509 794,509 Z M474.5,228 C476.541,233.931 483.724,239.286 488.5,243 C484.926,237.155 478.978,233.083 474.5,228 Z M306.5,372 C307.402,376.505 313.28,381.023 316.5,384 C315.782,379.101 309.448,375.454 306.5,372 Z M320.5,388 C318.889,390.464 322.352,390.756 323.5,392 C325.171,389.857 321.118,389.653 320.5,388 Z " fill="rgb(211,187,254)"/>
<path d="M137,191 C136.218,192.317 132.711,193.95 132,195 C130.528,191.651 131.308,188.387 131,185 C135.118,184.725 136.747,187.811 137,191 Z " fill="rgb(215,44,170)"/>
<path d="M367,191 C331.763,190.175 296.26,191.016 261,191 C261,191 367,191 367,191 Z " fill="rgb(245,242,245)"/>
<path d="M259,190 C259.949,190 260.051,191 261,191 C296.26,191.016 331.763,190.175 367,191 C369.898,191.068 377.216,190.171 379,192 C363.063,192.344 346.979,191.731 331,192 C289.682,192.694 248.329,192.748 207,193 C198.964,193.049 137.435,191.252 136,194.5 C135.707,196.565 144.485,202.809 145.5,203 C156.796,205.13 192.19,201.633 207,202 C246.638,202.982 286.288,205.143 326,204 C337.988,204.76 351.167,202.973 363,204 C363,204 363,205 363,205 C363,205 149,205 149,205 C141.843,203.13 137.476,199.769 131,197 C131.256,196.358 131.632,195.544 132,195 C132.711,193.95 136.218,192.317 137,191 C176.967,192.035 217.081,190.06 257,190 C257.64,189.999 258.355,190 259,190 Z " fill="rgb(93,34,233)"/>
<path d="M668.5,191 C668.5,191 700,192.5 700,192.5 C700,192.5 652.5,193 652.5,193 C652.5,193 668.5,191 668.5,191 Z " fill="rgb(121,73,254)"/>
<path d="M331,192 C329.657,198.236 331.512,200.361 326,204 C286.288,205.143 246.638,202.982 207,202 C207,202 207,193 207,193 C248.329,192.748 289.682,192.694 331,192 Z " fill="rgb(222,117,125)"/>
<path d="M379,192 C379.133,192.136 378.925,193.366 379,194 C374.374,196.446 369.75,201.31 366,205 C365.909,203.397 364.15,204.1 363,204 C351.167,202.973 337.988,204.76 326,204 C331.512,200.361 329.657,198.236 331,192 C346.979,191.731 363.063,192.344 379,192 Z " fill="rgb(254,170,48)"/>
<path d="M207,193 C207,193 207,202 207,202 C192.19,201.633 156.796,205.13 145.5,203 C144.485,202.809 135.707,196.565 136,194.5 C137.435,191.252 198.964,193.049 207,193 Z " fill="rgb(136,71,249)"/>
<path d="M379,194 C379,194 380,194 380,194 C373.202,202.21 370.602,199.86 379.5,209 C381.07,206.359 383.784,205.505 386,204 C386,204 171,420.5 171,420.5 C171.087,421.368 172.762,420.82 173,421 C182.614,428.268 187.88,410.943 196.5,413 C198.522,413.482 204.746,422.844 205,425 C190.3,405.386 194.161,419.376 184.5,424 C179.776,426.261 172.899,422.441 170.5,423 C169.47,423.24 163.882,430.632 160.5,431 C153.918,431.717 151.501,424.353 150.5,424 C149.604,423.684 132.37,423.617 131.5,424 C129.122,425.563 130.266,427.871 130,430 C130,430 128,430 128,430 C127.833,428.571 128.533,424.732 127.5,424 C127.5,424 83.5,424 83.5,424 C83.5,424 127.5,422 127.5,422 C127.345,419.466 129.465,404.39 129,403.5 C128.348,402.254 114.189,394.394 111.5,392 C108.179,389.044 93.8164,372.412 92.5,372 C90.3892,371.339 65.9995,372.855 66,371.5 C66,371.5 91,370.5 91,370.5 C61.2696,321.685 80.6822,262.443 128,234 C128,234.661 128.004,235.339 128,236 C89.0301,261.779 67.0531,306.231 84,352.5 C84.8023,354.69 93.382,370.609 94.5,371 C96.0574,371.545 125.992,371.669 127.5,371 C127.5,371 129,283 129,283 C129.221,283.198 129.353,282.838 130,284 C134.791,292.605 128.033,366.317 131,370.5 C131,370.5 198,371.5 198,371.5 C198,371.5 131,372.5 131,372.5 C132.931,378.464 128.476,397.511 130,401.5 C131.059,404.272 153.202,411.56 156.5,415 C156.5,415 279,292 279,292 C282.837,290.885 284.116,286.735 285,286 C312.62,263.046 339.967,230.618 366,205 C369.75,201.31 374.374,196.446 379,194 Z M96.5,372 C100.878,380.833 114.078,393.429 122.5,398 C123.646,398.622 128.275,401.761 129,399.5 C129,399.5 127.5,372 127.5,372 C127.5,372 96.5,372 96.5,372 Z M131.5,404 C131.5,404 130.5,422 130.5,422 C140.112,421.366 149.598,426.731 155,416.5 C154.936,413.841 134.004,407.977 131.5,404 Z " fill="rgb(117,60,253)"/>
<path d="M149,205 C149.1,205.026 148.65,206.826 149.5,207 C149.5,207 360.5,207 360.5,207 C350.595,216.651 292.321,282.013 285.5,284 C284.251,284.364 261.524,284.717 260.5,284 C258.528,282.62 262.361,273.627 258,273 C248.611,198.314 149.317,211.556 147,273.5 C145.101,324.251 210.607,352.264 245,312.5 C249.496,307.302 256.879,288.921 258,288 C258.752,288.14 259.307,288.66 260,289 C264.31,291.116 274.63,293.27 279,292 C279,292 156.5,415 156.5,415 C153.202,411.56 131.059,404.272 130,401.5 C128.476,397.511 132.931,378.464 131,372.5 C131,372.5 198,371.5 198,371.5 C198,371.5 131,370.5 131,370.5 C128.033,366.317 134.791,292.605 130,284 C137.7,278.141 134.073,292.359 139,294.5 C134.533,276.916 134.929,259.388 144,243.5 C144.451,241.394 141.983,242.705 141.5,243 C140.194,243.797 133.155,268.904 135,272.5 C135,272.5 131,270.5 131,270.5 C133.043,253.876 125.516,210.763 131,197 C137.476,199.769 141.843,203.13 149,205 Z M139,228 C139,228 132,232.5 132,232.5 C134.64,234.259 137.296,230.711 139,230 C156.071,222.878 171.092,217.865 190,217.5 C172.99,214.56 154.771,221.546 139,228 Z M331.5,225 C324.352,225.369 316.086,227.13 309,228.5 C309.246,230.1 339.393,227.453 340.5,225 C337.51,225.109 334.485,224.846 331.5,225 Z " fill="rgb(229,220,250)"/>
<path d="M366,205 C366,205 363,205 363,205 C363,205 363,204 363,204 C364.15,204.1 365.909,203.397 366,205 Z " fill="rgb(146,74,92)"/>
<path d="M675.5,204 C675.5,204 772,205.5 772,205.5 C772,205.5 660.5,208 660.5,208 C663.298,203.076 671.465,206.56 675.5,204 Z " fill="rgb(115,77,251)"/>
<path d="M363,205 C363,205 366,205 366,205 C339.967,230.618 312.62,263.046 285,286 C284.338,285.987 283.661,286.028 283,286 C282.925,284.455 281.151,285.022 280,285 C274.686,284.899 269.309,285.179 264,285 C263.487,284.983 258.254,286.071 258,285.5 C257.647,281.488 258.491,276.905 258,273 C262.361,273.627 258.528,282.62 260.5,284 C261.524,284.717 284.251,284.364 285.5,284 C292.321,282.013 350.595,216.651 360.5,207 C360.5,207 149.5,207 149.5,207 C148.65,206.826 149.1,205.026 149,205 C149,205 363,205 363,205 Z " fill="rgb(249,242,247)"/>
<path d="M139,230 C139,230 139,228 139,228 C154.771,221.546 172.99,214.56 190,217.5 C171.092,217.865 156.071,222.878 139,230 Z " fill="rgb(107,62,252)"/>
<path d="M426,219 C425.005,219.984 424.006,221.006 423,222 C423,222 426,219 426,219 Z " fill="rgb(104,72,247)"/>
<path d="M258,273 C258.491,276.905 257.647,281.488 258,285.5 C258.254,286.071 263.487,284.983 264,285 C264.532,288.293 261.666,286.434 260,287 C258.684,287.448 259.158,287.049 258,288 C256.879,288.921 249.496,307.302 245,312.5 C210.607,352.264 145.101,324.251 147,273.5 C149.317,211.556 248.611,198.314 258,273 Z M168,286 C168,286 168,287 168,287 C162.349,287.2 156.707,287.757 151,287.5 C154.548,309.69 176.31,327.584 198,329 C198,329 199,330 199,330 C224.519,331.621 250.635,313.136 255,287.5 C254.147,286.465 233.401,287.07 230,287 C230,287 230,286 230,286 C233.989,285.916 254.717,286.981 256,284.5 C261.029,256.128 237.16,224.74 208.5,223 C205.279,222.804 198.691,221.818 199,226 C199,226 198,226 198,226 C197.895,224.441 197.849,223.991 196.5,223 C167.959,227.934 144.202,254.459 150,284.5 C151.946,287.152 164.375,285.863 168,286 Z " fill="rgb(94,59,249)"/>
<path d="M198,226 C199.216,244.085 195.019,266.769 197,285.5 C196.161,286.683 171.577,286.135 168,286 C164.375,285.863 151.946,287.152 150,284.5 C144.202,254.459 167.959,227.934 196.5,223 C197.849,223.991 197.895,224.441 198,226 Z " fill="rgb(229,221,250)"/>
<path d="M230,286 C219.714,286.215 209.273,286.253 199,285.5 C199,285.5 199,226 199,226 C198.691,221.818 205.279,222.804 208.5,223 C237.16,224.74 261.029,256.128 256,284.5 C254.717,286.981 233.989,285.916 230,286 Z " fill="rgb(229,220,250)"/>
<path d="M519,233 C516.612,230.771 513.919,228.007 511,226.5 C511,226.5 511,384.5 511,384.5 C538.679,388.692 563.871,394.654 586.5,412 C609.776,429.842 625.397,456.694 632,485 C633.876,493.042 634.043,500.924 635.5,509 C644.662,509.111 653.849,508.849 663,509 C663,509 663,511 663,511 C653.852,511.152 644.662,510.888 635.5,511 C634.29,516.644 634.099,522.247 634,528 C623.728,588.004 572.602,634.612 511,635 C448.494,635.394 400.073,592.302 387,533 C386.191,529.33 384.893,511.617 383.5,511 C371.008,511.179 358.478,510.758 346,511 C346,511 346,510 346,510 C350.772,510.093 383.136,510.516 384.5,509 C384.042,499.872 387.565,490.696 388,482 C402.313,426.012 452.071,386.639 510,385.5 C510,385.5 510,227.5 510,227.5 C510,227.5 385,351.5 385,351.5 C385,351.5 386,363 386,363 C385.784,362.086 382.676,356.07 382.5,354 C361.018,375.015 340.203,396.725 319,418 C318.341,418.661 317.662,419.335 317,420 C298.672,438.399 239.412,491.425 229,509 C228.936,509.108 227.291,509.683 227,510.5 C227.291,511.317 228.936,511.892 229,512 C238.554,528.127 293.05,576.912 310,594 C310,594 225,511 225,511 C225,511 225,510 225,510 C225,510 510.5,223 510.5,223 C510.5,223 519,233 519,233 Z M511,417 C559.849,417.701 602.55,460.217 604,509 C604.014,509.462 604.007,510.478 604,511 C603.354,559.505 560.972,602.992 512.5,604 C511.276,604.625 510.23,609.6 510,611 C512.909,600.906 493.369,603.287 485.5,601 C445.419,589.352 418.333,551.829 414.5,511 C414.5,511 387,511.5 387,511.5 C386.826,578.971 442.876,632.959 510,633 C579.174,633.042 630.588,578.99 632,511 C632.016,510.225 632.009,509.744 632,509 C631.161,442.5 579.356,388.815 512,388 C474.202,387.543 437.744,404.039 414,433.5 C398.377,452.885 384.243,484.874 388.5,510 C388.5,510 415.5,509 415.5,509 C417.046,459.849 461.403,416.288 511,417 Z M431,509 C431.333,509.003 431.667,509 432,509 C436.281,508.995 440.679,509.066 445,509 C444.976,509.93 445.976,510.028 446,511 C446,511 433.5,511 433.5,511 C431.294,512.044 432.736,520.101 433,522 C433,522 432,522 432,522 C431.376,519.597 430.879,511.711 429.5,511 C429.011,510.748 418.949,510.682 418.5,511 C412.687,515.122 426.442,549.37 430,555.5 C446.337,583.645 478.468,602.258 511,602 C558.895,601.62 602.018,559.948 601,511.5 C593.984,511.758 576.878,508.156 574,514 C574,514 572,512 572,512 C572.014,511.668 571.994,511.333 572,511 C572.006,510.667 572.001,510.333 572,510 C571.875,475.756 546.404,450.923 513,448 C513,448 512,446 512,446 C543.675,446.522 575.34,476.45 573.5,509 C573.5,509 599.5,509 599.5,509 C603.841,462.49 557.822,418.859 512,419.5 C510.729,421.285 514.647,431.135 514,434.5 C513.823,435.418 511.029,434.851 511,435 C511.483,431.962 505.981,432.835 504.5,433 C494.754,434.083 482.635,438.276 474,443 C474,443 473,442 473,442 C477.112,439.778 483.213,436.458 487.5,435 C497.473,431.608 517.842,435.12 509.5,419 C461.451,418.739 419.581,461.031 417,508.5 C417.677,509.522 428.826,508.983 431,509 Z " fill="rgb(64,24,191)"/>
<path d="M331.5,225 C334.485,224.846 337.51,225.109 340.5,225 C339.393,227.453 309.246,230.1 309,228.5 C316.086,227.13 324.352,225.369 331.5,225 Z " fill="rgb(191,132,250)"/>
<path d="M230,286 C230,286 230,287 230,287 C219.713,286.789 209.274,286.744 199,287.5 C199,287.5 199,330 199,330 C199,330 198,329 198,329 C198,329 198,287.5 198,287.5 C188.078,286.847 177.929,286.649 168,287 C168,287 168,286 168,286 C171.577,286.135 196.161,286.683 197,285.5 C195.019,266.769 199.216,244.085 198,226 C198,226 199,226 199,226 C199,226 199,285.5 199,285.5 C209.273,286.253 219.714,286.215 230,286 Z " fill="rgb(156,105,254)"/>
<path d="M519,233 C526.834,240.31 534.235,248.509 542,256 C542,256 635,350.5 635,350.5 C635,350.5 635,353 635,353 C635,353 632,485 632,485 C625.397,456.694 609.776,429.842 586.5,412 C563.871,394.654 538.679,388.692 511,384.5 C511,384.5 511,226.5 511,226.5 C513.919,228.007 516.612,230.771 519,233 Z " fill="url(#grad52)"/>
/>
<path d="M418,227 C417.005,227.982 416.007,229.006 415,230 C415,230 418,227 418,227 Z " fill="rgb(104,72,247)"/>
<path d="M388,482 C389.074,460.524 390.12,380.436 386,363 C386,363 385,351.5 385,351.5 C385,351.5 510,227.5 510,227.5 C510,227.5 510,385.5 510,385.5 C452.071,386.639 402.313,426.012 388,482 Z " fill="url(#grad54)"/>
/>
<path d="M139,230 C137.296,230.711 134.64,234.259 132,232.5 C132,232.5 139,228 139,228 C139,228 139,230 139,230 Z " fill="rgb(213,136,252)"/>
<path d="M474.5,228 C478.978,233.083 484.926,237.155 488.5,243 C483.724,239.286 476.541,233.931 474.5,228 Z " fill="rgb(186,158,250)"/>
<path d="M411,234 C410.007,234.981 409.003,236.008 408,237 C408,237 411,234 411,234 Z " fill="rgb(104,72,247)"/>
<path d="M129,283 C129,283 127.5,371 127.5,371 C125.992,371.669 96.0574,371.545 94.5,371 C93.382,370.609 84.8023,354.69 84,352.5 C67.0531,306.231 89.0301,261.779 128,236 C127.954,243.113 131.17,262.714 129,268.5 C128.327,270.295 118.309,273.312 118,277.5 C119.823,279.16 128.131,282.222 129,283 Z " fill="rgb(229,221,250)"/>
<path d="M401,244 C400.341,244.654 399.665,245.339 399,246 C399,246 401,244 401,244 Z " fill="rgb(104,72,247)"/>
<path d="M715.5,253 C715.5,253 771,253.5 771,253.5 C755.183,252.035 732.415,257.708 717.5,255 C716.066,254.74 713.998,255.537 715.5,253 Z " fill="rgb(118,76,254)"/>
<path d="M794,509 C794.147,510.261 794.352,510.499 793,511 C793.61,509.08 792.159,509.202 792,509 C768.403,479.059 730.603,446.616 703,419 C683.302,399.293 660.462,372.125 639.5,355 C637.946,353.73 637.654,352.414 635,353 C635,353 635,350.5 635,350.5 C635,350.5 542,256 542,256 C627.619,338.602 710.371,424.41 794,509 Z " fill="rgb(20,10,168)"/>
<path d="M387,258 C385.296,259.68 383.787,261.332 382,263 C382,263 387,258 387,258 Z " fill="rgb(104,72,247)"/>
<path d="M902,265 C902,265 724,266 724,266 C720.073,266.204 723.93,263.792 725.5,262 C725.5,262 901.5,262 901.5,262 C901.5,262 902,265 902,265 Z " fill="rgb(237,235,246)"/>
<path d="M902,265 C902,265 724,266 724,266 C724,266 902,265 902,265 Z " fill="rgb(98,53,255)"/>
<path d="M379,266 C379.123,267.224 377.438,267.605 377,268 C377.589,267.432 377.421,267.322 379,266 Z " fill="rgb(104,72,247)"/>
<path d="M377,268 C376.336,268.599 375.795,269.312 375,270 C374.353,267.294 376.738,268.253 377,268 Z " fill="rgb(104,72,247)"/>
<path d="M363,282 C359.613,285.273 356.47,288.73 353,292 C355.634,288.997 358.018,282.999 363,282 Z " fill="rgb(104,72,247)"/>
<path d="M280,285 C280.082,286.565 281.847,285.951 283,286 C283.661,286.028 284.338,285.987 285,286 C284.116,286.735 282.837,290.885 279,292 C274.63,293.27 264.31,291.116 260,289 C260,289 260,287 260,287 C261.666,286.434 264.532,288.293 264,285 C269.309,285.179 274.686,284.899 280,285 Z " fill="rgb(244,135,90)"/>
<path d="M283,286 C281.847,285.951 280.082,286.565 280,285 C281.151,285.022 282.925,284.455 283,286 Z " fill="rgb(194,98,156)"/>
<path d="M168,287 C177.929,286.649 188.078,286.847 198,287.5 C198,287.5 198,329 198,329 C176.31,327.584 154.548,309.69 151,287.5 C156.707,287.757 162.349,287.2 168,287 Z " fill="rgb(229,222,250)"/>
<path d="M230,287 C233.401,287.07 254.147,286.465 255,287.5 C250.635,313.136 224.519,331.621 199,330 C199,330 199,287.5 199,287.5 C209.274,286.744 219.713,286.789 230,287 Z " fill="rgb(229,221,250)"/>
<path d="M260,287 C260,287 260,289 260,289 C259.307,288.66 258.752,288.14 258,288 C259.158,287.049 258.684,287.448 260,287 Z " fill="rgb(216,110,161)"/>
<path d="M353,292 C349.787,295.663 346.349,298.577 343,302 C346.044,296.088 348.862,295.899 353,292 Z " fill="rgb(104,72,247)"/>
<path d="M343,302 C342.547,302.88 342.184,303.925 341,304 C341.56,303.459 342.441,302.571 343,302 Z " fill="rgb(104,72,247)"/>
<path d="M339,306 C336.872,308.014 335.448,310.104 333,312 C333,312 339,306 339,306 Z " fill="rgb(104,72,247)"/>
<path d="M332,313 C331.688,314.588 330.047,315.148 329,316 C328.369,312.972 331.283,313.49 332,313 Z " fill="rgb(104,72,247)"/>
<path d="M790.5,316 C843.698,312.451 898.715,317.408 952,317.5 C952,317.5 779.5,318 779.5,318 C782.243,317.129 787.745,316.184 790.5,316 Z " fill="rgb(106,52,254)"/>
<path d="M325,320 C324.379,320.539 323.739,321.343 323,322 C323.36,321.455 322.255,319.431 325,320 Z " fill="rgb(104,72,247)"/>
<path d="M323,322 C321.321,324.546 319.323,326.121 317,328 C316.641,324.34 321.741,323.119 323,322 Z " fill="rgb(104,72,247)"/>
<path d="M787.5,329 C837.292,329.98 887.288,327.021 937,330.5 C937,330.5 861.5,331 861.5,331 C861.5,331 787.5,329 787.5,329 Z " fill="rgb(110,72,254)"/>
<path d="M315,330 C315.068,331.218 313.595,331.547 313,332 C312.382,329.272 314.638,330.298 315,330 Z " fill="rgb(104,72,247)"/>
<path d="M305,340 C304.308,340.709 303.717,341.307 303,342 C303,342 305,340 305,340 Z " fill="rgb(104,72,247)"/>
<path d="M805.5,340 C837.917,340.97 870.697,338.03 903,341.5 C903,341.5 853.5,342 853.5,342 C853.5,342 805.5,340 805.5,340 Z " fill="rgb(125,76,252)"/>
<path d="M299,346 C297.645,347.289 296.432,348.675 295,350 C295.628,349.194 295.787,345.368 299,346 Z " fill="rgb(104,72,247)"/>
<path d="M295,350 C293.7,351.669 292.622,354.092 290,354 C291.626,352.565 294.115,350.819 295,350 Z " fill="rgb(104,72,247)"/>
<path d="M816.5,352 C816.5,352 875,353.5 875,353.5 C858.649,352.314 833.895,356.795 818.5,354 C817.066,353.74 814.998,354.537 816.5,352 Z " fill="rgb(102,52,255)"/>
<path d="M703,419 C702.527,444.873 700.833,471.113 702,497 C699.524,498.917 702.2,507.799 700.5,509 C698.969,510.082 667.8,509.079 663,509 C653.849,508.849 644.662,509.111 635.5,509 C634.043,500.924 633.876,493.042 632,485 C632,485 635,353 635,353 C637.654,352.414 637.946,353.73 639.5,355 C660.462,372.125 683.302,399.293 703,419 Z " fill="url(#grad87)"/>
/>
<path d="M386,363 C390.12,380.436 389.074,460.524 388,482 C387.565,490.696 384.042,499.872 384.5,509 C383.136,510.516 350.772,510.093 346,510 C342.009,509.923 321.145,511.08 320,508.5 C320,508.5 319,418 319,418 C340.203,396.725 361.018,375.015 382.5,354 C382.676,356.07 385.784,362.086 386,363 Z " fill="url(#grad88)"/>
/>
<path d="M283,362 C282.741,359.234 285.605,358.449 287,357 C287.162,359.704 284.556,360.609 283,362 Z " fill="rgb(104,72,248)"/>
<path d="M825.5,365 C825.5,365 847,366.5 847,366.5 C841.43,366.699 832.75,367.952 827.5,367 C826.066,366.74 823.999,367.536 825.5,365 Z " fill="rgb(120,81,252)"/>
<path d="M96.5,372 C96.5,372 127.5,372 127.5,372 C127.5,372 129,399.5 129,399.5 C128.275,401.761 123.646,398.622 122.5,398 C114.078,393.429 100.878,380.833 96.5,372 Z " fill="rgb(229,221,250)"/>
<path d="M306.5,372 C309.448,375.454 315.782,379.101 316.5,384 C313.28,381.023 307.402,376.505 306.5,372 Z " fill="rgb(189,163,248)"/>
<path d="M267,378 C265.301,379.702 263.767,381.323 262,383 C262,383 267,378 267,378 Z " fill="rgb(104,72,248)"/>
<path d="M261,384 C261,384 259,386 259,386 C259.275,385.757 259.77,385.078 261,384 Z " fill="rgb(104,72,248)"/>
<path d="M257,388 C257.068,389.218 255.595,389.547 255,390 C254.382,387.272 256.638,388.298 257,388 Z " fill="rgb(104,72,248)"/>
<path d="M320.5,388 C321.118,389.653 325.171,389.857 323.5,392 C322.352,390.756 318.889,390.464 320.5,388 Z " fill="rgb(189,163,248)"/>
<path d="M512,388 C512,388 511,417 511,417 C461.403,416.288 417.046,459.849 415.5,509 C415.5,509 388.5,510 388.5,510 C384.243,484.874 398.377,452.885 414,433.5 C437.744,404.039 474.202,387.543 512,388 Z " fill="url(#grad97)"/>
/>
<path d="M632,509 C632,509 604,509 604,509 C602.55,460.217 559.849,417.701 511,417 C511,417 512,388 512,388 C579.356,388.815 631.161,442.5 632,509 Z " fill="url(#grad98)"/>
/>
<path d="M251,394 C249.249,395.771 247.94,397.32 246,399 C246,399 251,394 251,394 Z " fill="rgb(104,72,248)"/>
<path d="M245,400 C245.123,401.224 243.438,401.605 243,402 C243.571,401.45 243.08,401.499 245,400 Z " fill="rgb(104,72,248)"/>
<path d="M243,402 C242.336,402.599 241.795,403.312 241,404 C240.353,401.293 242.738,402.253 243,402 Z " fill="rgb(104,72,248)"/>
<path d="M131.5,404 C134.004,407.977 154.936,413.841 155,416.5 C149.598,426.731 140.112,421.366 130.5,422 C130.5,422 131.5,404 131.5,404 Z " fill="rgb(229,222,251)"/>
<path d="M234,411 C233.151,412.058 232.585,413.681 231,414 C231.232,413.761 231.06,410.214 234,411 Z " fill="rgb(104,72,248)"/>
<path d="M835,416 C831.579,415.392 829.047,419.435 827,421 C824.589,422.844 821.477,424.661 819,426.5 C825.153,418.305 822.057,407.124 835,416 Z " fill="rgb(101,53,251)"/>
<path d="M205,425 C205.073,425.618 205.101,426.393 205,427 C193.359,432.363 135.225,500.298 130,500 C131.992,478.057 127.331,451.364 130,430 C130.266,427.871 129.122,425.563 131.5,424 C132.37,423.617 149.604,423.684 150.5,424 C151.501,424.353 153.918,431.717 160.5,431 C163.882,430.632 169.47,423.24 170.5,423 C172.899,422.441 179.776,426.261 184.5,424 C194.161,419.376 190.3,405.386 205,425 Z " fill="rgb(229,221,250)"/>
<path d="M229,416 C229,416 227,418 227,418 C227.782,417.157 228.305,416.71 229,416 Z " fill="rgb(104,72,248)"/>
<path d="M346,510 C346,510 346,511 346,511 C342.008,511.077 321.146,509.92 320,512.5 C317.961,522.095 323.07,598.394 319,600 C319,600 317.5,511 317.5,511 C317.5,511 229,512 229,512 C228.936,511.892 227.291,511.317 227,510.5 C227.291,509.683 228.936,509.108 229,509 C229,509 319,508.5 319,508.5 C319,508.5 317,420 317,420 C317.662,419.335 318.341,418.661 319,418 C319,418 320,508.5 320,508.5 C321.145,511.08 342.009,509.923 346,510 Z " fill="rgb(46,109,220)"/>
<path d="M473,442 C464.341,446.679 460.805,450.125 454,457 C439.592,471.556 429.433,487.518 431,509 C428.826,508.983 417.677,509.522 417,508.5 C419.581,461.031 461.451,418.739 509.5,419 C517.842,435.12 497.473,431.608 487.5,435 C483.213,436.458 477.112,439.778 473,442 Z " fill="rgb(225,217,251)"/>
<path d="M512,446 C511.339,445.989 510.66,445.982 510,446 C512.149,442.643 510.336,438.481 511,435 C511.029,434.851 513.823,435.418 514,434.5 C514.647,431.135 510.729,421.285 512,419.5 C557.822,418.859 603.841,462.49 599.5,509 C599.5,509 573.5,509 573.5,509 C575.34,476.45 543.675,446.522 512,446 Z " fill="rgb(252,65,150)"/>
<path d="M792,509 C792,509 773,509 773,509 C749.514,509 725.998,509 702.5,509 C701.485,508.28 702.091,499.02 702,497 C700.833,471.113 702.527,444.873 703,419 C730.603,446.616 768.403,479.059 792,509 Z " fill="url(#grad110)"/>
/>
<path d="M225,420 C225,420 223,422 223,422 C223.859,421.077 224.707,420.322 225,420 Z " fill="rgb(104,72,248)"/>
<path d="M229,509 C239.412,491.425 298.672,438.399 317,420 C317,420 319,508.5 319,508.5 C319,508.5 229,509 229,509 Z " fill="url(#grad112)"/>
/>
<path d="M904,424 C904,424 904,422 904,422 C924.922,422.36 946.207,420.487 967,423.5 C946.03,424.741 924.977,423.56 904,424 Z " fill="rgb(181,102,253)"/>
<path d="M221,424 C217.515,427.709 213.295,430.599 210,434 C213.271,430.753 216.29,425.498 221,424 Z " fill="rgb(104,72,248)"/>
<path d="M207,425 C207,425 205,427 205,427 C205.101,426.393 205.073,425.618 205,425 C205,425 207,425 207,425 Z " fill="rgb(79,58,250)"/>
<path d="M205,427 C203.745,434.564 133.189,494.898 131,502.5 C130.268,505.042 130.597,512.256 135,509 C134.915,509.972 134.982,511.019 135,512 C135,512 131,512.5 131,512.5 C131,512.5 133,522.5 133,522.5 C133,522.5 501.5,891 501.5,891 C508.857,893.158 509.97,888 510.5,888 C511.055,888 514.868,892.735 520,891 C520,891 520,892 520,892 C518.397,894.444 513.336,891.444 512,894.5 C507.531,904.719 516.534,951.996 510.5,966 C508.017,957.104 512.118,896.488 510,893.5 C509.167,892.325 503.306,893.329 501.5,893 C501.5,893 131.5,522 131.5,522 C131.5,522 130,572 130,572 C130,572 129,572 129,572 C129.336,565.47 130.289,512.238 127.5,511 C127.5,511 63,510.5 63,510.5 C63,510.5 126.5,510 126.5,510 C127.286,509.695 127.906,501.674 128,500 C128.661,500.017 129.342,499.962 130,500 C135.225,500.298 193.359,432.363 205,427 Z " fill="rgb(138,100,251)"/>
<path d="M130,430 C127.331,451.364 131.992,478.057 130,500 C129.342,499.962 128.661,500.017 128,500 C129.002,482.091 129.984,446.948 128,430 C128,430 130,430 130,430 Z " fill="rgb(221,90,220)"/>
<path d="M511,435 C510.336,438.481 512.149,442.643 510,446 C476.905,446.919 445.862,475.211 445,509 C440.679,509.066 436.281,508.995 432,509 C431.83,489.569 440.576,472.603 454,459 C458.832,454.104 468.094,446.231 474,443 C482.635,438.276 494.754,434.083 504.5,433 C505.981,432.835 511.483,431.962 511,435 Z " fill="rgb(228,219,251)"/>
<path d="M191,454 C197.396,447.162 203.323,440.628 210,434 C203.692,440.511 198.668,448.704 191,454 Z " fill="rgb(105,72,247)"/>
<path d="M474,443 C468.094,446.231 458.832,454.104 454,459 C454,459 454,457 454,457 C460.805,450.125 464.341,446.679 473,442 C473,442 474,443 474,443 Z " fill="rgb(223,131,249)"/>
<path d="M510,446 C510.66,445.982 511.339,445.989 512,446 C512,446 513,448 513,448 C511.44,447.935 512.243,449.424 512,450 C511.368,449.923 510.148,450.137 510,450 C506.203,446.484 497.556,449.215 491.5,451 C464.559,458.941 448.88,482.987 448,510 C447.989,510.333 448.002,510.667 448,511 C447.617,588.581 568.49,593.771 572,512 C572,512 574,514 574,514 C572.389,517.27 573.221,522.968 572,526.5 C565.528,545.228 551.508,562.886 532.5,570 C528.456,571.514 512.063,573.638 511,575 C475.209,571.4 446.914,548.624 446,511 C445.976,510.028 444.976,509.93 445,509 C445.862,475.211 476.905,446.919 510,446 Z " fill="rgb(86,49,233)"/>
<path d="M510,450 C510,450 508.5,510 508.5,510 C508.5,510 448,510 448,510 C448.88,482.987 464.559,458.941 491.5,451 C497.556,449.215 506.203,446.484 510,450 Z " fill="rgb(229,221,250)"/>
<path d="M572,510 C572,510 512,508.5 512,508.5 C514.505,497.261 508.689,457.846 512,450 C512.243,449.424 511.44,447.935 513,448 C546.404,450.923 571.875,475.756 572,510 Z " fill="rgb(228,221,250)"/>
<path d="M512,450 C508.689,457.846 514.505,497.261 512,508.5 C512,508.5 572,510 572,510 C572.001,510.333 572.006,510.667 572,511 C572,511 513.5,511 513.5,511 C513.5,511 511.5,516 511.5,516 C511.5,516 509.5,511 509.5,511 C509.5,511 448,511 448,511 C448.002,510.667 447.989,510.333 448,510 C448,510 508.5,510 508.5,510 C508.5,510 510,450 510,450 C510.148,450.137 511.368,449.923 512,450 Z " fill="rgb(156,109,252)"/>
<path d="M454,459 C440.576,472.603 431.83,489.569 432,509 C431.667,509 431.333,509.003 431,509 C429.433,487.518 439.592,471.556 454,457 C454,457 454,459 454,459 Z " fill="rgb(117,76,252)"/>
<path d="M187,458 C186.405,459.99 184.3,460.739 183,462 C182.418,458.772 186.072,458.684 187,458 Z " fill="rgb(105,72,247)"/>
<path d="M182,463 C180.886,464.041 180.398,466.527 178,466 C179.154,464.903 179.587,462.494 182,463 Z " fill="rgb(105,72,247)"/>
<path d="M151,494 C157.865,484.101 167.406,476.274 176,468 C169.537,478.24 159.038,485.281 151,494 Z " fill="rgb(104,72,247)"/>
<path d="M773,509 C773,509 773,511 773,511 C764.965,511.038 703.44,509.255 702,512.5 C702.755,539.685 702.097,566.86 702,594 C702,594 701,512.5 701,512.5 C699.901,510.024 667.916,510.918 663,511 C663,511 663,509 663,509 C667.8,509.079 698.969,510.082 700.5,509 C702.2,507.799 699.524,498.917 702,497 C702.091,499.02 701.485,508.28 702.5,509 C725.998,509 749.514,509 773,509 Z " fill="rgb(190,115,129)"/>
<path d="M146,499 C145.176,500.012 143.101,501.814 143,502 C143,502 146,499 146,499 Z " fill="rgb(104,72,247)"/>
<path d="M632,509 C632.009,509.744 632.016,510.225 632,511 C632,511 604,511 604,511 C604.007,510.478 604.014,509.462 604,509 C604,509 632,509 632,509 Z " fill="rgb(146,77,137)"/>
<path d="M792,509 C792.159,509.202 793.61,509.08 793,511 C792.755,511.091 792.353,510.959 792,511 C786.426,511.649 778.873,510.972 773,511 C773,511 773,509 773,509 C773,509 792,509 792,509 Z " fill="rgb(183,146,90)"/>
<path d="M808,596 C712.166,692.609 616.364,789.569 519.5,885 C519.5,885 502.5,885 502.5,885 C502.5,885 138,521 138,521 C138,521 138.5,511 138.5,511 C138.5,511 140,518.5 140,518.5 C140,518.5 503.5,882 503.5,882 C503.5,882 518.5,882 518.5,882 C518.5,882 804,596.5 804,596.5 C804,596.5 808,596 808,596 Z " fill="rgb(220,207,247)"/>
<path d="M225,511 C225,511 310,594 310,594 C310.655,594.661 311.337,595.332 312,596 C312,596 510.5,797 510.5,797 C510.5,797 779,526 779,526 C779.19,525.834 779.807,526.164 780,526 C785.495,521.327 790.37,516.058 795.5,511 C795.5,511 880.5,511 880.5,511 C880.5,511 880,518.5 880,518.5 C880,518.5 518.5,880 518.5,880 C518.5,880 513.5,881 513.5,881 C513.5,881 512.5,866 512.5,866 C507.659,873.034 516.686,882.285 503.5,880 C503.5,880 141,516.5 141,516.5 C141,516.5 142.5,511 142.5,511 C142.5,511 225,511 225,511 Z " fill="rgb(211,186,254)"/>
<path d="M319,600 C318.534,600.184 317.855,599.928 318,601 C316.277,599.263 313.723,597.737 312,596 C311.337,595.332 310.655,594.661 310,594 C293.05,576.912 238.554,528.127 229,512 C229,512 317.5,511 317.5,511 C317.5,511 319,600 319,600 Z " fill="url(#grad135)"/>
/>
<path d="M346,511 C358.478,510.758 371.008,511.179 383.5,511 C384.893,511.617 386.191,529.33 387,533 C387,533 383,667 383,667 C361.217,645.139 339.728,622.913 318,601 C317.855,599.928 318.534,600.184 319,600 C323.07,598.394 317.961,522.095 320,512.5 C321.146,509.92 342.008,511.077 346,511 Z " fill="url(#grad136)"/>
/>
<path d="M510,611 C508.947,617.403 510.773,626.28 510,633 C442.876,632.959 386.826,578.971 387,511.5 C387,511.5 414.5,511 414.5,511 C418.333,551.829 445.419,589.352 485.5,601 C493.369,603.287 512.909,600.906 510,611 Z " fill="url(#grad137)"/>
/>
<path d="M432,522 C434.639,532.16 436.643,543.187 444.5,551 C440.913,542.102 434.341,531.644 433,522 C432.736,520.101 431.294,512.044 433.5,511 C433.5,511 446,511 446,511 C446.914,548.624 475.209,571.4 511,575 C508.851,577.754 509.823,597.483 511,602 C478.468,602.258 446.337,583.645 430,555.5 C426.442,549.37 412.687,515.122 418.5,511 C418.949,510.682 429.011,510.748 429.5,511 C430.879,511.711 431.376,519.597 432,522 Z " fill="rgb(187,159,238)"/>
<path d="M572,511 C571.994,511.333 572.014,511.668 572,512 C568.49,593.771 447.617,588.581 448,511 C448,511 509.5,511 509.5,511 C509.5,511 511.5,516 511.5,516 C511.5,516 513.5,511 513.5,511 C513.5,511 572,511 572,511 Z " fill="rgb(228,220,250)"/>
<path d="M511,602 C509.823,597.483 508.851,577.754 511,575 C512.063,573.638 528.456,571.514 532.5,570 C551.508,562.886 565.528,545.228 572,526.5 C573.221,522.968 572.389,517.27 574,514 C576.878,508.156 593.984,511.758 601,511.5 C602.018,559.948 558.895,601.62 511,602 Z " fill="url(#grad140)"/>
/>
<path d="M632,511 C630.588,578.99 579.174,633.042 510,633 C510.773,626.28 508.947,617.403 510,611 C510.23,609.6 511.276,604.625 512.5,604 C560.972,602.992 603.354,559.505 604,511 C604,511 632,511 632,511 Z " fill="url(#grad141)"/>
/>
<path d="M663,511 C667.916,510.918 699.901,510.024 701,512.5 C701,512.5 702,594 702,594 C701.988,597.225 700.959,599.699 705,599 C681.894,621.839 659.004,645.045 636,668 C635.847,621.543 633.201,574.414 634,528 C634.099,522.247 634.29,516.644 635.5,511 C644.662,510.888 653.852,511.152 663,511 Z " fill="url(#grad142)"/>
/>
<path d="M773,511 C778.873,510.972 786.426,511.649 792,511 C792,511 780,526 780,526 C779.807,526.164 779.19,525.834 779,526 C753.969,547.773 728.9,575.376 705,599 C700.959,599.699 701.988,597.225 702,594 C702.097,566.86 702.755,539.685 702,512.5 C703.44,509.255 764.965,511.038 773,511 Z " fill="url(#grad143)"/>
/>
<path d="M882,523 C869.99,540.744 827.549,576.3 810,594 C806.269,593.798 808.243,592.547 809.5,591 C824.39,572.678 873.695,534.115 882,518.5 C883.292,516.071 882.636,513.476 883.5,511 C884.764,517.668 885.343,518.061 882,523 Z " fill="rgb(221,210,248)"/>
<path d="M896,554 C895.682,554.306 895.351,554.661 895,555 C894.9,543.593 893.259,532.32 892,521 C892,521 894,519 894,519 C894.107,529.923 898.307,542.728 896,554 Z " fill="rgb(205,108,231)"/>
<path d="M808,596 C808.656,595.339 809.337,594.669 810,594 C827.549,576.3 869.99,540.744 882,523 C882,523 883,523 883,523 C883,523 522.5,885 522.5,885 C517.011,888.72 510.008,885.513 503.5,887 C503.5,887 137,522 137,522 C137,522 138,521 138,521 C138,521 502.5,885 502.5,885 C502.5,885 519.5,885 519.5,885 C616.364,789.569 712.166,692.609 808,596 Z " fill="rgb(60,16,235)"/>
<path d="M432,522 C432,522 433,522 433,522 C434.341,531.644 440.913,542.102 444.5,551 C436.643,543.187 434.639,532.16 432,522 Z " fill="rgb(155,108,238)"/>
<path d="M855,595 C854.317,595.582 853.936,596.296 853,597 C847.577,594.134 844.52,597.89 844,598 C841.98,598.427 834.919,598.771 834.5,599 C827.484,602.844 831.996,615.275 816.5,597 C816.5,597 520,892 520,892 C520,892 520,891 520,891 C520,891 889.5,522 889.5,522 C884.687,534.289 833.885,574.388 832,581.5 C828.592,594.357 846.179,596.617 855,595 Z M829.5,584 C827.484,583.918 826.027,589.342 829.5,589 C830.789,588.873 830.704,584.049 829.5,584 Z M824.5,589 C823.657,589.166 819.396,594.602 818,595.5 C826.832,605.513 825.78,608.443 835,596.5 C833.156,593.613 828.283,588.253 824.5,589 Z " fill="rgb(110,79,249)"/>
<path d="M312,596 C313.723,597.737 316.277,599.263 318,601 C339.728,622.913 361.217,645.139 383,667 C394.971,679.014 407.031,690.99 419,703 C448.856,732.956 478.352,763.318 508.5,793 C508.5,793 512,736 512,736 C511.761,754.565 511.43,773.453 512.5,792 C554.05,751.057 594.718,709.194 636,668 C659.004,645.045 681.894,621.839 705,599 C728.9,575.376 753.969,547.773 779,526 C779,526 510.5,797 510.5,797 C510.5,797 312,596 312,596 Z " fill="rgb(26,5,196)"/>
<path d="M636,668 C594.718,709.194 554.05,751.057 512.5,792 C511.43,773.453 511.761,754.565 512,736 C512.137,725.352 511.487,714.629 512.5,704 C512.5,704 556,702.5 556,702.5 C556,702.5 512,701.5 512,701.5 C513.33,679.985 511,658.275 511,637 C511,637 511,635 511,635 C572.602,634.612 623.728,588.004 634,528 C633.201,574.414 635.847,621.543 636,668 Z " fill="url(#grad150)"/>
/>
<path d="M894,578 C892.651,579.376 893.078,579.92 893,580 C888.264,584.838 882.829,589.17 878,594 C876.632,595.369 877.079,595.921 877,596 C859.523,613.483 841.667,630.704 824,648 C824,648 823,648 823,648 C835.638,635.174 847.498,621.492 861,609.5 C858.493,604.07 854.312,601.6 849,603 C848.667,603.088 848.258,602.89 848,603 C847.913,602.37 848.165,601.409 848,601 C850.659,601.516 851.792,597.908 853,597 C853.936,596.296 854.317,595.582 855,595 C869.313,582.806 881.506,568.031 895,555 C895.351,554.661 895.682,554.306 896,554 C899.547,550.586 921.639,528.341 923.5,528 C929.632,526.876 934.26,532.375 933,538.5 C932.293,541.936 899.198,572.698 894,578 Z " fill="rgb(102,12,253)"/>
<path d="M511,635 C511,635 511,637 511,637 C511,637 509.5,702 509.5,702 C509.5,702 419,703 419,703 C407.031,690.99 394.971,679.014 383,667 C383,667 387,533 387,533 C400.073,592.302 448.494,635.394 511,635 Z " fill="url(#grad152)"/>
/>
<path d="M121,887 C121.496,883.098 126.423,891.139 129,887.5 C132.286,882.861 126.692,871.336 119,879 C119.785,874.821 128.405,875.383 129,874.5 C131.113,871.362 127.063,815.959 129,807.5 C118.436,803.177 116.14,797.098 128,792.5 C128,792.5 129,703.5 129,703.5 C104.398,695.682 128.227,691.92 129,689.5 C129,689.5 129,599.5 129,599.5 C129,599.5 117,594.5 117,594.5 C117.011,589.16 128.446,585.829 129,584.5 C129.586,583.095 128.863,574.665 129,572 C129,572 130,572 130,572 C130.002,574.48 129.503,584.331 130,585.5 C130.287,586.174 134.405,586.937 135,588.5 C138.657,598.112 130.332,598.862 130,599.5 C127.92,603.491 128.883,681.839 130,689.5 C130.097,690.163 133.786,692.697 134,693.5 C135.915,700.68 130.115,702.773 130,703.5 C128.896,710.449 128.569,787.339 130,791.5 C130.307,792.394 136.756,795.524 137,798.5 C137.35,802.769 130.428,806.198 130,807.5 C128.953,810.682 128.809,871.369 130,874.5 C131.129,877.467 144.954,881.26 130,890.5 C130,890.5 130.5,957 130.5,957 C126.07,948.475 131.393,893.778 129,890.5 C127.826,888.892 124.095,888.911 121,887 Z " fill="rgb(127,52,243)"/>
<path d="M895,595 C894.989,595.661 895.017,596.339 895,597 C894.812,604.204 892.32,626.423 894,631.5 C894.423,632.779 913.21,648.611 914.5,649 C918.273,650.136 959.001,647.275 959,649.5 C959,649.5 917,650.5 917,650.5 C964.023,698.344 957.091,750.512 910.5,795 C908.007,797.38 894.51,805.959 894,807.5 C892.628,811.645 894.001,819.676 896,822 C893.544,825.623 891.754,833.634 898,833 C896.708,834.502 894.58,833.862 894,835.5 C893.332,837.385 893.463,872.075 894,875.5 C894.128,876.315 895.971,876.878 896,877 C896.898,880.767 898.965,883.571 898,888 C897.036,888.379 894.672,887.371 894,888.5 C893.016,890.155 894.04,921.77 894,927 C894,927 892,927 892,927 C891.972,921.722 893.607,890.328 893,888.5 C892.275,886.316 882.745,886.966 883,882.5 C883.19,879.17 891.753,876.981 892,876.5 C892.937,874.676 893.928,837.328 893,835.5 C892.71,834.928 885.166,834.193 888,825.5 C889.049,822.282 892.502,823.19 893,821.5 C893.184,820.875 890.811,810.898 892,808.5 C892,808.5 877,815 877,815 C876.49,814.853 875.642,815.074 875,815 C877.516,811.686 891.892,807.813 893,804.5 C893.913,801.771 893.246,747.861 890.5,747 C888.404,746.343 888.521,746.951 888,748.5 C886.179,753.916 886.947,764.63 884,772.5 C882.201,777.304 876.122,786.671 872,789.5 C875.786,781.602 883.191,772.123 885,763.5 C886.233,757.622 884.399,740.539 885,739.5 C885.242,739.082 891.536,738.687 893,735.5 C893,735.5 893,650.5 893,650.5 C893,650.5 822,650 822,650 C822,650 822,649 822,649 C822.334,648.661 822.679,648.326 823,648 C823,648 824,648 824,648 C832.208,648.203 889.706,650.982 892.5,649 C893.173,648.523 893.428,633.714 893,632.5 C892.351,630.661 867.461,613.25 864,610.5 C864,610.5 892.5,630 892.5,630 C894.607,628.284 892.007,601.364 892,597 C891.999,596.36 891.998,595.66 892,595 C892.011,590.351 894.049,584.884 893,580 C893.078,579.92 892.651,579.376 894,578 C895.698,583.178 895.092,589.566 895,595 Z M894.5,634 C894.5,634 894.5,649 894.5,649 C894.5,649 912,648.5 912,648.5 C912,648.5 894.5,634 894.5,634 Z M894.5,650 C896.269,675.693 890.424,709.745 894,734.5 C894.095,735.16 897.795,737.709 898,738.5 C900.327,747.495 894.109,748.859 894,749.5 C893.402,753.016 892.797,803.643 895.5,804 C944.243,772.096 967.383,709.539 925,661.5 C914.214,649.274 911.31,649.166 894.5,650 Z " fill="rgb(122,66,250)"/>
<path d="M892,595 C892,595 878,594 878,594 C882.829,589.17 888.264,584.838 893,580 C894.049,584.884 892.011,590.351 892,595 Z " fill="rgb(225,219,246)"/>
<path d="M829.5,584 C830.704,584.049 830.789,588.873 829.5,589 C826.027,589.342 827.484,583.918 829.5,584 Z " fill="rgb(234,233,236)"/>
<path d="M824.5,589 C828.283,588.253 833.156,593.613 835,596.5 C825.78,608.443 826.832,605.513 818,595.5 C819.396,594.602 823.657,589.166 824.5,589 Z " fill="rgb(228,221,251)"/>
<path d="M892,595 C891.998,595.66 891.999,596.36 892,597 C892,597 877,596 877,596 C877.079,595.921 876.632,595.369 878,594 C878,594 892,595 892,595 Z " fill="rgb(185,132,251)"/>
<path d="M895,597 C895.017,596.339 894.989,595.661 895,595 C895,595 960,596.5 960,596.5 C960,596.5 895,597 895,597 Z " fill="rgb(213,142,254)"/>
<path d="M853,597 C851.792,597.908 850.659,601.516 848,601 C847.381,599.466 845.896,597.756 844,598 C844.52,597.89 847.577,594.134 853,597 Z " fill="rgb(228,220,251)"/>
<path d="M892,597 C892.007,601.364 894.607,628.284 892.5,630 C892.5,630 864,610.5 864,610.5 C867.461,613.25 892.351,630.661 893,632.5 C893.428,633.714 893.173,648.523 892.5,649 C889.706,650.982 832.208,648.203 824,648 C841.667,630.704 859.523,613.483 877,596 C877,596 892,597 892,597 Z " fill="rgb(228,220,250)"/>
<path d="M848,601 C848,601 844,598 844,598 C845.896,597.756 847.381,599.466 848,601 Z " fill="rgb(110,79,249)"/>
<path d="M823,648 C822.679,648.326 822.334,648.661 822,649 C795.257,676.137 768.022,703.125 741,730 C740.331,730.666 739.657,731.347 739,732 C706.401,764.407 671.633,802.578 637,832 C633.994,834.554 630.954,836.839 628.5,840 C628.5,840 621,832 621,832 C691.732,760.341 778.682,684.341 844,610.5 C845.293,609.038 848.346,604.947 849,603 C854.312,601.6 858.493,604.07 861,609.5 C847.498,621.492 835.638,635.174 823,648 Z " fill="rgb(61,122,254)"/>
<path d="M849,603 C848.346,604.947 845.293,609.038 844,610.5 C778.682,684.341 691.732,760.341 621,832 C616.408,836.652 584.474,865.945 584,868.5 C583.455,871.439 592.931,882.154 596,876 C593.2,879.303 590.958,880.093 589,882 C589,882 579.5,873 579.5,873 C565.869,888.935 548.203,901.876 534,917 C534,917 848,603 848,603 C848.258,602.89 848.667,603.088 849,603 Z " fill="rgb(19,7,242)"/>
<path d="M894.5,634 C894.5,634 912,648.5 912,648.5 C912,648.5 894.5,649 894.5,649 C894.5,649 894.5,634 894.5,634 Z " fill="rgb(234,228,247)"/>
<path d="M512,736 C512,736 508.5,793 508.5,793 C478.352,763.318 448.856,732.956 419,703 C419,703 509.5,702 509.5,702 C509.5,702 511,637 511,637 C511,658.275 513.33,679.985 512,701.5 C512,701.5 556,702.5 556,702.5 C556,702.5 512.5,704 512.5,704 C511.487,714.629 512.137,725.352 512,736 Z " fill="url(#grad166)"/>
/>
<path d="M822,650 C822,650 741,730 741,730 C768.022,703.125 795.257,676.137 822,649 C822,649 822,650 822,650 Z " fill="rgb(39,4,248)"/>
<path d="M875,815 C875,815 658.5,815 658.5,815 C658.5,815 739,733 739,733 C739,733 769,732.5 769,732.5 C747.001,793.117 833.291,836.602 868,782.5 C911.005,715.467 804.416,658.092 769.5,731 C769.5,731 741,730 741,730 C741,730 822,650 822,650 C822,650 893,650.5 893,650.5 C893,650.5 893,735.5 893,735.5 C891.536,738.687 885.242,739.082 885,739.5 C884.399,740.539 886.233,757.622 885,763.5 C883.191,772.123 875.786,781.602 872,789.5 C876.122,786.671 882.201,777.304 884,772.5 C886.947,764.63 886.179,753.916 888,748.5 C888.521,746.951 888.404,746.343 890.5,747 C893.246,747.861 893.913,801.771 893,804.5 C891.892,807.813 877.516,811.686 875,815 Z M811.5,685 C801.039,686.062 784.261,691.44 777.5,700 C801.656,683.286 830.365,683.555 857,693.5 C844.22,685.14 826.308,683.497 811.5,685 Z " fill="rgb(229,221,250)"/>
<path d="M894.5,650 C911.31,649.166 914.214,649.274 925,661.5 C967.383,709.539 944.243,772.096 895.5,804 C892.797,803.643 893.402,753.016 894,749.5 C894.109,748.859 900.327,747.495 898,738.5 C897.795,737.709 894.095,735.16 894,734.5 C890.424,709.745 896.269,675.693 894.5,650 Z " fill="rgb(229,220,250)"/>
<path d="M811.5,685 C826.308,683.497 844.22,685.14 857,693.5 C830.365,683.555 801.656,683.286 777.5,700 C784.261,691.44 801.039,686.062 811.5,685 Z " fill="rgb(137,78,250)"/>
<path d="M739,733 C739,733 739,732 739,732 C739.657,731.347 740.331,730.666 741,730 C741,730 769.5,731 769.5,731 C804.416,658.092 911.005,715.467 868,782.5 C833.291,836.602 747.001,793.117 769,732.5 C769,732.5 739,733 739,733 Z M818.5,698 C805.428,697.969 786.948,709.351 779,719.5 C749.778,756.816 781.706,809.857 827.5,805 C827.5,805 828,699.5 828,699.5 C825.516,699.654 820.168,698.004 818.5,698 Z M831.5,699 C831.5,699 830.5,805 830.5,805 C888.629,792.627 890.49,712.159 831.5,699 Z " fill="rgb(89,60,251)"/>
<path d="M818.5,698 C820.168,698.004 825.516,699.654 828,699.5 C828,699.5 827.5,805 827.5,805 C781.706,809.857 749.778,756.816 779,719.5 C786.948,709.351 805.428,697.969 818.5,698 Z " fill="rgb(229,221,250)"/>
<path d="M831.5,699 C890.49,712.159 888.629,792.627 830.5,805 C830.5,805 831.5,699 831.5,699 Z " fill="rgb(228,220,250)"/>
<path d="M739,733 C739,733 658.5,815 658.5,815 C658.5,815 875,815 875,815 C875.642,815.074 876.49,814.853 877,815 C880.804,816.096 889.417,826.646 881.5,829 C822.353,827.237 763.146,828.296 704,829 C703.339,829.008 702.661,828.993 702,829 C682.517,829.219 662.995,828.837 643.5,829 C632.116,843.699 608.723,859.136 599,874 C598.961,874.059 598.69,873.803 598,875 C598,875 596,875 596,875 C608.917,860.037 624.548,847.381 637,832 C671.633,802.578 706.401,764.407 739,732 C739,732 739,733 739,733 Z M659,827 C733.051,828.935 807.409,825.552 881.5,827 C884.653,826.121 879.605,817.649 877.5,817 C834.004,817.183 790.483,816.755 747,817 C716.517,817.172 685.996,816.872 655.5,817 C655.5,817 646,826.5 646,826.5 C646.758,827.496 656.797,826.942 659,827 Z " fill="rgb(39,4,248)"/>
<path d="M242,810 C242,810 149,810 149,810 C149,810 242,810 242,810 Z " fill="rgb(107,55,255)"/>
<path d="M242,810 C242.436,813.009 239.331,811.938 237.5,812 C213.567,812.81 172.018,814.846 149.5,812 C148.775,811.908 148.987,810.605 149,810 C149,810 242,810 242,810 Z " fill="rgb(247,246,248)"/>
<path d="M747,817 C746.665,818.858 747.683,825.161 746.5,826 C742.722,828.678 669.729,823.221 659,827 C656.797,826.942 646.758,827.496 646,826.5 C646,826.5 655.5,817 655.5,817 C685.996,816.872 716.517,817.172 747,817 Z " fill="rgb(117,19,255)"/>
<path d="M659,827 C669.729,823.221 742.722,828.678 746.5,826 C747.683,825.161 746.665,818.858 747,817 C790.483,816.755 834.004,817.183 877.5,817 C879.605,817.649 884.653,826.121 881.5,827 C807.409,825.552 733.051,828.935 659,827 Z " fill="rgb(97,79,255)"/>
<path d="M197,822 C197,822 197,824 197,824 C180.022,823.944 162.967,824.455 146,823.5 C162.72,820.702 180.124,822.071 197,822 Z " fill="rgb(108,60,255)"/>
<path d="M197,824 C197,824 197,822 197,822 C219.545,821.906 242.573,820.825 265,823.5 C242.366,824.359 219.642,824.075 197,824 Z " fill="rgb(188,118,254)"/>
<path d="M900,825 C900,825 900,832 900,832 C898.734,833.488 898.073,832.915 898,833 C891.754,833.634 893.544,825.623 896,822 C896.812,822.944 898.31,822.636 900,825 Z " fill="rgb(232,104,107)"/>
<path d="M900,832 C900,832 900,825 900,825 C901.231,826.722 903.036,826.732 902,830.5 C901.79,831.262 900.082,831.904 900,832 Z " fill="rgb(122,30,159)"/>
<path d="M702,829 C702,829 701.5,883 701.5,883 C689.232,880.737 603.661,885.949 599.5,883 C598.317,882.161 599.335,875.858 599,874 C608.723,859.136 632.116,843.699 643.5,829 C662.995,828.837 682.517,829.219 702,829 Z " fill="rgb(229,221,250)"/>
<path d="M704,829 C704,829 703.5,883 703.5,883 C703.5,883 873.5,884 873.5,884 C873.5,884 890.5,848 890.5,848 C892.011,854.352 877.359,885.927 873.5,887 C873.263,887.066 874.53,885.987 870,886 C848.458,886.063 826.633,884.945 805,885 C770.633,885.087 736.297,885.186 702,886 C681.788,884.341 661.27,884.774 641,885 C635.506,885.061 599.154,883.9 598,886.5 C598,886.5 596.5,960 596.5,960 C596.5,960 597,886.5 597,886.5 C597,886.5 588,885 588,885 C588.059,884.961 587.802,884.69 589,884 C590.988,882.855 596.191,883.218 596.5,883 C597.517,882.281 596.427,877.728 598,875 C598.69,873.803 598.961,874.059 599,874 C599.335,875.858 598.317,882.161 599.5,883 C603.661,885.949 689.232,880.737 701.5,883 C701.5,883 702,829 702,829 C702.661,828.993 703.339,829.008 704,829 Z " fill="rgb(134,92,253)"/>
<path d="M637,832 C624.548,847.381 608.917,860.037 596,875 C595.835,875.192 596.164,875.807 596,876 C592.931,882.154 583.455,871.439 584,868.5 C584.474,865.945 616.408,836.652 621,832 C621,832 628.5,840 628.5,840 C630.954,836.839 633.994,834.554 637,832 Z " fill="rgb(97,57,255)"/>
<path d="M219.5,837 C231.672,836.879 251.374,835.382 262.5,837 C263.646,837.167 266.149,836.797 265.5,839 C265.5,839 147,838.5 147,838.5 C171.125,838.484 195.41,837.24 219.5,837 Z " fill="rgb(111,49,255)"/>
<path d="M740.5,839 C740.5,839 872,840.5 872,840.5 C872,840.5 724.5,841 724.5,841 C724.5,841 740.5,839 740.5,839 Z " fill="rgb(125,69,254)"/>
<path d="M148.5,852 C210.298,852.983 272.273,850.017 334,853.5 C334,853.5 240.5,854 240.5,854 C240.5,854 148.5,852 148.5,852 Z " fill="rgb(104,59,254)"/>
<path d="M785.5,853 C798.556,852.875 825.118,850.933 836.5,853 C837.934,853.26 840.002,852.463 838.5,855 C838.5,855 725,854.5 725,854.5 C745.113,854.519 765.429,853.193 785.5,853 Z " fill="rgb(132,66,254)"/>
<path d="M274,866 C274,866 274,867 274,867 C231.354,866.629 188.642,867.693 146,866.5 C188.46,865.596 231.386,865.871 274,866 Z " fill="rgb(98,50,255)"/>
<path d="M274,867 C274,867 274,866 274,866 C294.224,866.061 314.91,864.709 335,867.5 C314.679,869.329 294.268,867.177 274,867 Z " fill="rgb(221,107,254)"/>
<path d="M589,882 C588.872,882.125 589.073,883.362 589,884 C587.802,884.69 588.059,884.961 588,885 C575.578,893.096 548.632,929.031 539.5,933 C531.154,936.628 526.043,929.609 529,921.5 C529.522,920.069 532.924,918.146 534,917 C548.203,901.876 565.869,888.935 579.5,873 C579.5,873 589,882 589,882 Z " fill="rgb(116,9,255)"/>
<path d="M598,875 C596.427,877.728 597.517,882.281 596.5,883 C596.191,883.218 590.988,882.855 589,884 C589.073,883.362 588.872,882.125 589,882 C590.958,880.093 593.2,879.303 596,876 C596.164,875.807 595.835,875.192 596,875 C596,875 598,875 598,875 Z " fill="rgb(208,211,235)"/>
<path d="M898,888 C898.965,883.571 896.898,880.767 896,877 C901.711,874.003 905.099,884.338 902,887.5 C900.88,888.643 899.132,887.555 898,888 Z " fill="rgb(238,91,95)"/>
<path d="M121,887 C117.822,885.038 115.465,882.522 119,879 C126.692,871.336 132.286,882.861 129,887.5 C126.423,891.139 121.496,883.098 121,887 Z " fill="rgb(159,76,250)"/>
<path d="M702,886 C683.175,886.447 664.395,887.547 645.5,887 C643.673,886.947 640.562,888.001 641,885 C661.27,884.774 681.788,884.341 702,886 Z " fill="rgb(234,234,247)"/>
<path d="M870,886 C870,886 805,885 805,885 C826.633,884.945 848.458,886.063 870,886 Z " fill="rgb(234,234,246)"/>
<path d="M894,927 C893.927,936.615 895.295,947.788 892.5,957 C891.549,947.043 892.052,936.976 892,927 C892,927 894,927 894,927 Z " fill="rgb(213,125,255)"/>
</svg>
