<svg width="3000" height="3000" viewBox="0 0 3000 3000" fill="none" xmlns="http://www.w3.org/2000/svg">
<g clip-path="url(#clip0_1_857)">
<path d="M1598.5 1623H1450V2168.5L978 2183.5V2261L1579 2254.5L1598.5 1623Z" fill="#D1EAFF"/>
<path d="M2642 2130.4C2642 2151.61 2646.73 2193 2667.72 2193C2688.7 2193 2718 2151.61 2718 2130.4C2718 2109.19 2700.99 2092 2680 2092C2659.01 2092 2642 2109.19 2642 2130.4Z" fill="black"/>
<path d="M2535 2130.4C2535 2151.61 2539.79 2193 2561.05 2193C2582.32 2193 2612 2151.61 2612 2130.4C2612 2109.19 2594.76 2092 2573.5 2092C2552.24 2092 2535 2109.19 2535 2130.4Z" fill="black"/>
<path d="M2429 2130.4C2429 2151.61 2433.73 2193 2454.72 2193C2475.7 2193 2505 2151.61 2505 2130.4C2505 2109.19 2487.99 2092 2467 2092C2446.01 2092 2429 2109.19 2429 2130.4Z" fill="black"/>
<path d="M352.389 2203.18L386.584 1250.7H1444.86V2164.28L1236.66 2171.7H1119.24H1119.12H1119L352.389 2203.18Z" stroke="black" stroke-width="12"/>
<path d="M452 2104H767M452 2054H973H452Z" stroke="black" stroke-width="12" stroke-linecap="round"/>
<path d="M1146 2391H879M1146 2318H801H1146ZM1146 2352H937.411H1146Z" stroke="black" stroke-width="12" stroke-linecap="round"/>
<path d="M1155.5 474.45H422.496C415.663 460.95 414.196 429.85 462.996 413.45C511.796 397.05 552.663 420.284 566.996 433.95C571.663 390.45 601.796 301.85 684.996 295.45C768.196 289.05 794.329 352.45 796.996 384.95C873.396 278.95 940.163 359.784 963.996 413.45C1043.6 385.85 1124.83 442.617 1155.5 474.45Z" fill="#D1EAFF"/>
<path d="M1228 689H1719.66C1724.24 680.273 1725.22 660.17 1692.49 649.569C1659.76 638.967 1632.35 653.986 1622.73 662.82C1619.6 634.701 1599.39 577.428 1543.58 573.291C1487.78 569.154 1470.25 610.137 1468.46 631.146C1417.22 562.625 1372.43 614.877 1356.45 649.569C1303.06 631.727 1248.57 668.422 1228 689Z" stroke="black" stroke-width="12"/>
<path d="M1448.5 1558.5H1653.5L1678 2236.5L972.5 2220V2184" stroke="black" stroke-width="12"/>
<path d="M361 1794H225V2454H1145.5" stroke="black" stroke-width="12"/>
<path d="M364 1798H226V1917H364V1798Z" fill="black"/>
<path d="M1178.5 2225.5V2371" stroke="black" stroke-width="12"/>
<path d="M380.794 1244.7H1450.86V1436.27H373.877L380.794 1244.7Z" fill="black"/>
<path d="M655 1727.5H1192.5L1209 1650H688L655 1727.5Z" fill="black"/>
<path d="M465.001 1389.43C490.15 1389.43 510.538 1367.52 510.538 1340.49C510.538 1313.46 490.15 1291.55 465.001 1291.55C439.852 1291.55 419.465 1313.46 419.465 1340.49C419.465 1367.52 439.852 1389.43 465.001 1389.43Z" fill="white"/>
<path d="M583.398 1389.43C608.547 1389.43 628.934 1367.52 628.934 1340.49C628.934 1313.46 608.547 1291.55 583.398 1291.55C558.249 1291.55 537.861 1313.46 537.861 1340.49C537.861 1367.52 558.249 1389.43 583.398 1389.43Z" fill="white"/>
<path d="M701.79 1389.43C726.94 1389.43 747.327 1367.52 747.327 1340.49C747.327 1313.46 726.94 1291.55 701.79 1291.55C676.641 1291.55 656.254 1313.46 656.254 1340.49C656.254 1367.52 676.641 1389.43 701.79 1389.43Z" fill="white"/>
<path d="M2248 909.746C2285.08 721.598 2455.17 373.655 2506.41 481.774C2570.45 616.922 2545.73 1003.82 2459.22 1026.34C2372.71 1048.87 2498.54 484.424 2606.4 524.173C2692.68 555.973 2642.35 721.155 2606.4 799.77C2619.13 693.772 2635.49 545.375 2812 446" stroke="black" stroke-width="12" stroke-linecap="round"/>
<path d="M1638.5 2721.5L1800.5 2430.5L1634 2318L1546.5 2458C1544.67 2474.17 1547.6 2546.6 1552 2607C1556.4 2667.4 1609.83 2707.83 1638.5 2721.5Z" fill="#3D98E7"/>
<path d="M1563.5 2638.5C1580.3 2686.1 1620.5 2711.67 1638.5 2718.5L1600 2786.5C1587.83 2816.67 1556.2 2876.3 1527 2873.5L1125 2428C1128.5 2395 1229.5 2337.5 1255.5 2337.5C1281.5 2337.5 1330.5 2388 1358 2408.5C1380 2424.9 1450.83 2457.33 1483.5 2471.5C1486.5 2434.83 1496.6 2362.2 1513 2365C1533.5 2368.5 1551.5 2478.5 1551.5 2492C1551.5 2505.5 1542.5 2579 1563.5 2638.5Z" stroke="black" stroke-width="12"/>
<path d="M1172.5 2378.5C1174 2396.5 1181.6 2436.7 1200 2453.5C1250.04 2499.18 1317.5 2619.26 1378.5 2635.5C1415 2643.5 1461 2751.5 1487 2770.5C1513 2789.5 1553 2819 1585 2817" stroke="black" stroke-width="12"/>
<path d="M1209 2360C1217.17 2385.67 1241 2443.5 1271 2469.5C1308.5 2502 1336 2533.5 1352 2544C1368 2554.5 1453 2506.5 1455 2459.5" stroke="black" stroke-width="12"/>
<path d="M1634 2719C1616.83 2710.33 1572 2688.3 1552 2693.5C1532 2698.7 1489 2737.33 1474.5 2757.5" stroke="black" stroke-width="12"/>
<path d="M2314.01 2678.42L2186.5 2340.01L1994.15 2398.14L2043.08 2531C2054.46 2542.63 2105.58 2572.5 2162.58 2645.5C2207.87 2703.5 2285.31 2692.03 2314.01 2678.42Z" fill="#3D98E7"/>
<path d="M2203.17 2674.28C2247.27 2698.84 2294.32 2691.4 2312.34 2684.6L2328.49 2761.06C2339.33 2791.73 2355.09 2857.36 2331.35 2874.59H1730.58C1711.36 2847.54 1753.57 2669.71 1773.06 2652.5C1792.55 2635.29 1862.71 2640.72 1896.89 2637.88C1924.24 2635.61 1998.8 2613.04 2032.67 2602.04C2010.65 2572.57 1970.14 2511.44 1984.29 2502.68C2001.97 2491.74 2088.27 2562.28 2097.21 2572.4C2106.14 2582.52 2148.05 2643.57 2203.17 2674.28Z" stroke="black" stroke-width="12"/>
<path d="M1737.98 2738.17C1751.02 2750.67 1783.33 2775.78 1808.24 2776.19C1839.38 2776.71 1927.8 2807.36 1946.88 2813.86C1965.96 2820.35 1998.16 2826.61 2062.51 2794.47C2095.16 2776.31 2201.13 2826.82 2233.19 2823.86C2265.26 2820.89 2314.77 2816.53 2337.43 2793.85" stroke="black" stroke-width="12"/>
<path d="M1753.1 2700.14C1776.21 2713.98 1832.35 2741.56 1872.05 2741.19C1921.67 2740.73 1963.13 2746.14 1982.08 2743.42C2001.02 2740.71 2032.97 2648.46 2003.36 2611.91" stroke="black" stroke-width="12"/>
<path d="M2309.3 2687.96C2290.69 2692.82 2242.5 2705.98 2230.95 2723.12C2219.4 2740.25 2212.74 2797.67 2215.22 2822.39" stroke="black" stroke-width="12"/>
<path d="M1760.5 1948L1749 1368.5L2319 1352V1424.5C2324.2 1638.9 2291.5 1799.83 2274.5 1853.5L2141.94 2052L2249.5 2475L1965.5 2522.5L1915 2390L1792 2576L1533 2421.5L1760.5 1948Z" fill="black"/>
<path d="M1741 2457L2196.5 1727" stroke="white" stroke-width="12" stroke-linecap="round"/>
<path fill-rule="evenodd" clip-rule="evenodd" d="M2034 582C1936.83 573.833 1697.8 609.7 1519 818.5C1432 913 1382.5 953 1176 905.5C970.46 858.221 910.556 875.339 858.233 890.291L857.5 890.5C805 905.5 755.5 955 770.5 995C758.834 1016.5 739.001 1064 753.001 1082C767 1100 932.833 1150.83 1014 1174C1083.83 1181.5 1236.4 1198 1288 1204C1352.5 1211.5 1524 1223.5 1713 1064.5L1748 1042.5V1378C1847.5 1398.83 2083.3 1431 2230.5 1393L2176 1430.5C2171.67 1486.67 2173.9 1581 2289.5 1627C2296.59 1624.75 2304.47 1622.28 2313.01 1619.6C2436.1 1580.99 2696.71 1499.26 2728.5 1416.5C2762.29 1309.75 2746.68 1280.21 2675.57 1145.64C2674.07 1142.81 2672.55 1139.93 2671 1137C2596 995 2446.5 723.5 2397 676.5C2347.5 629.5 2151 552 2034 582ZM2319 1341V1092.5C2353.83 1126.67 2424.7 1203.9 2429.5 1239.5C2434.3 1275.1 2357.83 1322 2319 1341Z" fill="#3D98E7"/>
<path d="M1519 818.5C1697.8 609.7 1936.83 573.833 2034 582C2151 552 2347.5 629.5 2397 676.5C2431.48 709.235 2514.46 850.874 2587 981.813L2381 1160.5L2347 1123L2326 1339.5L2221.5 1398.5C2116 1416 1857.5 1422 1748 1378V1042.5L1713 1064.5C1692.08 1082.1 1671.37 1097.61 1651 1111.25L1519 818.5Z" fill="#F07CF2"/>
<path d="M2155.38 840L2169.7 876.477L2219.75 852.259L2187.56 898.995L2229 921.152L2181.19 927.075L2184.03 966.188L2155.38 939.571L2115.8 976L2129.56 927.075L2091 921.152L2123.19 898.995L2109.82 867.755L2141.05 876.477L2155.38 840Z" fill="#DC34DF"/>
<path d="M1752 1003C1744.38 948.239 1738.53 902.262 1744.38 868" stroke="black" stroke-width="12" stroke-linecap="round"/>
<path d="M2336 1101C2328.38 1046.24 2322.53 1000.26 2328.38 966" stroke="black" stroke-width="12" stroke-linecap="round"/>
<path d="M2303 1003C2299.95 981.095 2297.61 962.705 2299.95 949" stroke="black" stroke-width="12" stroke-linecap="round"/>
<path d="M1981.01 441.654C2001.98 441.654 2018.97 424.657 2018.97 403.69C2018.97 382.722 2001.98 365.725 1981.01 365.725C1960.04 365.725 1943.04 382.722 1943.04 403.69C1943.04 424.657 1960.04 441.654 1981.01 441.654Z" fill="black"/>
<path d="M1981.01 511.653C2001.98 511.653 2018.97 494.655 2018.97 473.688C2018.97 452.721 2001.98 435.723 1981.01 435.723C1960.04 435.723 1943.04 452.721 1943.04 473.688C1943.04 494.655 1960.04 511.653 1981.01 511.653Z" fill="black"/>
<path d="M1943.05 473.688C1964.02 473.688 1981.01 456.69 1981.01 435.723C1981.01 414.756 1964.02 397.758 1943.05 397.758C1922.08 397.758 1905.08 414.756 1905.08 435.723C1905.08 456.69 1922.08 473.688 1943.05 473.688Z" fill="black"/>
<path d="M2278.8 430.384C2278.8 517.857 2207.89 588.768 2120.41 588.768C1973.3 603.005 1962.03 517.857 1962.03 430.384C1962.03 342.911 2032.94 272 2120.41 272C2207.89 272 2278.8 342.911 2278.8 430.384Z" fill="#3D98E7"/>
<path d="M2120.41 272C2057.83 272 2003.73 308.293 1978.01 360.98L2277.29 408.436C2266.6 331.35 2200.44 272 2120.41 272Z" fill="#F07CF2"/>
<path d="M2271.09 407.249L1860 350.302" stroke="black" stroke-width="12" stroke-linecap="round"/>
<path d="M2195.75 602.412L2192.79 555.549L2046.26 549.024L2037.96 592.921C2075.92 671.223 2180.33 630.885 2195.75 602.412Z" fill="#3D98E7"/>
<path d="M2269.31 473.688C2291.59 473.688 2309.65 455.362 2309.65 432.757C2309.65 410.151 2291.59 391.826 2269.31 391.826C2247.03 391.826 2228.97 410.151 2228.97 432.757C2228.97 455.362 2247.03 473.688 2269.31 473.688Z" fill="black"/>
<path d="M2310.24 473.687C2321.71 473.687 2331 464.126 2331 452.332C2331 440.538 2321.71 430.977 2310.24 430.977C2298.77 430.977 2289.48 440.538 2289.48 452.332C2289.48 464.126 2298.77 473.687 2310.24 473.687Z" fill="black"/>
<path d="M2326.25 488.518C2326.25 515.054 2304.9 540.34 2278.21 544.278C2242.02 549.617 2211.17 513.275 2211.17 486.738C2211.17 460.201 2251.67 440.469 2278.21 440.469C2304.74 440.469 2326.25 461.981 2326.25 488.518Z" fill="black"/>
<path d="M1980.71 407.075C2002.8 409.98 2023.1 394.166 2026.04 371.753L1946.06 361.233C1943.11 383.646 1958.63 404.17 1980.71 407.075Z" fill="black"/>
<path d="M2032.56 401.612C2044 402.462 2053.98 393.617 2054.85 381.855L2013.44 378.776C2012.57 390.537 2021.13 400.761 2032.56 401.612Z" fill="black"/>
<path d="M2223.39 496.251C2239.32 501.485 2257.38 490.049 2263.74 470.708C2270.1 451.366 2262.34 431.444 2246.41 426.21C2230.48 420.975 2212.42 432.411 2206.06 451.753C2199.7 471.094 2207.46 491.016 2223.39 496.251Z" fill="#0E76D0"/>
<path d="M2214.14 461.23C2219.48 452.332 2234.31 441.655 2247.95 444.028" stroke="black" stroke-width="8" stroke-linecap="round"/>
<path d="M2239.25 445.379C2240.86 447.857 2244.25 456.013 2244.77 461.572" stroke="black" stroke-width="8" stroke-linecap="round"/>
<path d="M2049.82 499.799L2083.78 449.62L2093.54 507.407L2049.82 499.799Z" fill="#0E76D0"/>
<path d="M2080.2 453.239L2049.5 496.892L2090.64 503.259" stroke="black" stroke-width="8" stroke-linecap="round"/>
<path d="M2074.14 533.6C2079.48 533.798 2092.89 532.889 2103.8 527.668" stroke="black" stroke-width="8" stroke-linecap="round"/>
<path d="M2117.45 408.46C2122.79 408.262 2136.19 409.172 2147.11 414.392" stroke="black" stroke-width="8" stroke-linecap="round"/>
<path d="M2033.21 410.833C2027.87 410.635 2014.47 411.545 2003.55 416.765" stroke="black" stroke-width="8" stroke-linecap="round"/>
<path d="M2083.04 584.023C2096.09 586.395 2119.23 588.175 2137.02 573.345" stroke="black" stroke-width="8" stroke-linecap="round"/>
<path d="M2027.87 455.891C2033.44 455.891 2037.95 451.377 2037.95 445.807C2037.95 440.238 2033.44 435.723 2027.87 435.723C2022.3 435.723 2017.79 440.238 2017.79 445.807C2017.79 451.377 2022.3 455.891 2027.87 455.891Z" fill="black"/>
<path d="M2127.53 455.891C2133.1 455.891 2137.61 451.377 2137.61 445.807C2137.61 440.238 2133.1 435.723 2127.53 435.723C2121.96 435.723 2117.45 440.238 2117.45 445.807C2117.45 451.377 2121.96 455.891 2127.53 455.891Z" fill="black"/>
<path d="M2141.1 512.691C2152.2 512.691 2161.2 503.694 2161.2 492.596C2161.2 481.498 2152.2 472.501 2141.1 472.501C2130 472.501 2121.01 481.498 2121.01 492.596C2121.01 503.694 2130 512.691 2141.1 512.691Z" fill="#0E76D0"/>
<path d="M2011.78 502.012C2022.88 502.012 2031.87 493.016 2031.87 481.918C2031.87 470.82 2022.88 461.823 2011.78 461.823C2000.68 461.823 1991.69 470.82 1991.69 481.918C1991.69 493.016 2000.68 502.012 2011.78 502.012Z" fill="#0E76D0"/>
<path d="M857 1332C959.725 1332 1043 1248.72 1043 1146C1043 1043.28 959.725 960 857 960C754.275 960 671 1043.28 671 1146C671 1248.72 754.275 1332 857 1332Z" fill="#FFDC4D"/>
<path d="M1004 1579C922.262 1579 856 1645.26 856 1727H1152C1152 1645.26 1085.74 1579 1004 1579Z" fill="#FFDC4D"/>
<path d="M857.646 904C832.313 927.667 819.246 970.4 969.646 952" stroke="black" stroke-width="12" stroke-linecap="round"/>
<path d="M1919 2374.5L2101 2104" stroke="white" stroke-width="12" stroke-linecap="round"/>
<path d="M1779.5 1910L1983 1592" stroke="white" stroke-width="12" stroke-linecap="round"/>
<path d="M782 1192.72C791.861 1142.52 837.1 1049.7 850.725 1078.54C867.757 1114.6 861.183 1217.82 838.175 1223.82C815.167 1229.83 848.633 1079.25 877.319 1089.86C900.267 1098.34 886.88 1142.41 877.319 1163.38C880.705 1135.1 885.056 1095.51 932 1069" stroke="black" stroke-width="12" stroke-linecap="round"/>
</g>
<defs>
<clipPath id="clip0_1_857">
<rect width="3000" height="3000" fill="white"/>
</clipPath>
</defs>
</svg>
