<svg width="373" height="373" viewBox="0 0 373 373" fill="none" xmlns="http://www.w3.org/2000/svg">
<g clip-path="url(#clip0_2265_62)">
<path d="M347.652 162.628H236.008L232.395 247.05L281.575 245.581L325.315 244.273L347.652 243.605V162.628Z" fill="#D1EAFF"/>
<path d="M56.8362 277.015H75.7445L76.3565 192.592L68.027 194.062L60.6193 195.37L56.8362 196.038V277.015Z" fill="#D1EAFF"/>
<path d="M86.1787 277.015H105.087L105.699 225.914L97.3696 226.804L89.9618 227.595L86.1787 227.999V277.015Z" fill="#D1EAFF"/>
<path d="M144.865 277.015H163.772L164.385 251.526L156.055 251.97L148.647 252.364L144.865 252.567V277.015Z" fill="#D1EAFF"/>
<path d="M115.521 277.015H134.429L135.042 206.02L126.712 207.256L119.305 208.357L115.521 208.917V277.015Z" fill="#D1EAFF"/>
<path d="M323.257 293.675L328.342 306.548L346.109 298.001L334.683 314.494L349.393 322.313L332.42 324.403L333.427 338.205L323.257 328.813L309.21 341.668L314.095 324.403L300.406 322.313L311.832 314.494L307.086 303.47L318.173 306.548L323.257 293.675Z" fill="black"/>
<path d="M325.495 295.665L330.58 308.537L348.347 299.99L336.921 316.483L351.631 324.302L334.658 326.392L335.665 340.195L325.495 330.803L311.448 343.657L316.333 326.392L302.644 324.302L314.07 316.483L309.324 305.46L320.411 308.537L325.495 295.665Z" fill="#FFDC4D"/>
<path d="M98.4755 83.8007L102.346 93.605L115.87 87.0955L107.173 99.6574L118.369 105.613L105.45 107.205L106.217 117.717L98.4755 110.563L87.7829 120.355L91.5009 107.205L81.0811 105.613L89.7783 99.6574L86.1665 91.2607L94.6049 93.605L98.4755 83.8007Z" fill="#FFDC4D"/>
<path d="M266.835 118.099C270.971 97.1214 289.945 58.328 295.66 70.3825C302.803 85.4507 300.046 128.587 290.395 131.098C280.746 133.61 294.782 70.678 306.814 75.1098C316.438 78.6553 310.823 97.0719 306.814 105.837C308.233 94.0189 310.059 77.4736 329.748 66.394" stroke="#FFDC4D" stroke-width="1.652" stroke-linecap="round"/>
<path d="M112.662 196.647C110.962 187.991 103.162 171.982 100.813 176.956C97.8766 183.174 99.0099 200.975 102.977 202.012C106.944 203.048 101.174 177.078 96.2281 178.907C92.2716 180.37 94.5796 187.97 96.2281 191.586C95.6442 186.71 94.8941 179.882 86.8005 175.31" stroke="black" stroke-width="1.652" stroke-linecap="round"/>
<path d="M70.6372 128.374V32.0158H199.198V54.085H249.056V124.582" stroke="#FFDC4D" stroke-width="1.652"/>
<path d="M61.1061 320.366C61.1061 325.837 59.8733 336.512 54.4025 336.512C48.9316 336.512 41.2944 325.837 41.2944 320.366C41.2944 314.895 45.7294 310.46 51.2003 310.46C56.6711 310.46 61.1061 314.895 61.1061 320.366Z" fill="black"/>
<path d="M88.7146 320.366C88.7146 325.837 87.4817 336.512 82.0109 336.512C76.54 336.512 68.9028 325.837 68.9028 320.366C68.9028 314.895 73.3378 310.46 78.8087 310.46C84.2795 310.46 88.7146 314.895 88.7146 320.366Z" fill="black"/>
<path d="M116.279 320.366C116.279 325.837 115.046 336.512 109.575 336.512C104.104 336.512 96.467 325.837 96.467 320.366C96.467 314.895 100.902 310.46 106.373 310.46C111.844 310.46 116.279 314.895 116.279 320.366Z" fill="black"/>
<path d="M309.731 102.608C309.731 105.167 309.15 110.159 306.575 110.159C304 110.159 300.406 105.167 300.406 102.608C300.406 100.049 302.493 97.9747 305.068 97.9747C307.643 97.9747 309.731 100.049 309.731 102.608Z" fill="black"/>
<path d="M320.769 105.608C320.769 107.557 320.329 111.361 318.38 111.361C316.431 111.361 313.709 107.557 313.709 105.608C313.709 103.658 315.29 102.078 317.239 102.078C319.189 102.078 320.769 103.658 320.769 105.608Z" fill="black"/>
<path d="M310.946 117.917C310.946 119.866 310.506 123.67 308.558 123.67C306.608 123.67 303.887 119.866 303.887 117.917C303.887 115.967 305.467 114.387 307.417 114.387C309.366 114.387 310.946 115.967 310.946 117.917Z" fill="black"/>
<path d="M320.784 117.917C320.784 119.866 320.345 123.67 318.395 123.67C316.446 123.67 313.724 119.866 313.724 117.917C313.724 115.967 315.304 114.387 317.254 114.387C319.203 114.387 320.784 115.967 320.784 117.917Z" fill="black"/>
<path d="M330.606 117.917C330.606 119.866 330.167 123.67 328.218 123.67C326.268 123.67 323.546 119.866 323.546 117.917C323.546 115.967 325.127 114.387 327.076 114.387C329.026 114.387 330.606 115.967 330.606 117.917Z" fill="black"/>
<path d="M311.071 130.225C311.071 132.175 310.631 135.978 308.682 135.978C306.733 135.978 304.011 132.175 304.011 130.225C304.011 128.276 305.592 126.696 307.541 126.696C309.491 126.696 311.071 128.276 311.071 130.225Z" fill="black"/>
<path d="M336.213 133.835C336.213 137.777 335.323 145.47 331.374 145.47C327.427 145.47 321.915 137.777 321.915 133.835C321.915 129.892 325.115 126.696 329.064 126.696C333.012 126.696 336.213 129.892 336.213 133.835Z" fill="black"/>
<path d="M154.687 279.97H173.986L209.145 278.717V126.752H33.4164L27.7285 285.182L87.4842 283.054" stroke="black" stroke-width="1.652"/>
<path d="M160.655 109.008H217.99M160.655 98.7207H196.697H160.655Z" stroke="black" stroke-width="1.652" stroke-linecap="round"/>
<path d="M33.4163 126.752H209.145V158.212H32.2803L33.4163 126.752Z" fill="black"/>
<path d="M47.245 150.518C51.375 150.518 54.7231 146.919 54.7231 142.481C54.7231 138.043 51.375 134.445 47.245 134.445C43.1149 134.445 39.7668 138.043 39.7668 142.481C39.7668 146.919 43.1149 150.518 47.245 150.518Z" fill="white"/>
<path d="M66.6881 150.518C70.8181 150.518 74.1662 146.919 74.1662 142.481C74.1662 138.043 70.8181 134.445 66.6881 134.445C62.558 134.445 59.21 138.043 59.21 142.481C59.21 146.919 62.558 150.518 66.6881 150.518Z" fill="white"/>
<path d="M86.1309 150.518C90.261 150.518 93.6091 146.919 93.6091 142.481C93.6091 138.043 90.261 134.445 86.1309 134.445C82.0009 134.445 78.6528 138.043 78.6528 142.481C78.6528 146.919 82.0009 150.518 86.1309 150.518Z" fill="white"/>
<path d="M195.119 180.209L127.582 182.179L132.544 69.005H285.859V177.56L255.184 178.456" stroke="black" stroke-width="1.652"/>
<path d="M285.858 69.005H132.555V82.1843H285.858V69.005Z" fill="black"/>
<path d="M245.474 236.753L177.937 238.223L182.899 153.8H336.214V234.777L305.539 235.445" stroke="black" stroke-width="1.652"/>
<path d="M189.802 231.388H239.825M189.802 225.906H221.247H189.802Z" stroke="black" stroke-width="1.652" stroke-linecap="round"/>
<path d="M336.213 153.8H182.91V169.466H336.213V153.8Z" fill="black"/>
<path d="M155.681 288.205C155.681 299.342 151.251 307.105 144.511 312.105C137.741 317.13 128.573 319.412 119.065 319.412C109.559 319.412 101.701 317.131 96.2244 312.153C90.7605 307.187 87.5464 299.426 87.5464 288.205C87.5464 265.766 102.911 247.796 121.614 247.796C140.316 247.796 155.681 265.766 155.681 288.205Z" stroke="black" stroke-width="1.652"/>
<path d="M155.366 277.868L172.059 281.872C178.745 294.409 174.803 302.07 174.207 313.32C162.019 312.548 131.541 310.294 127.97 306.824C124.348 303.301 128.368 301.992 130.603 301.929L124.967 300.374C123.421 300.021 120.275 298.752 120.069 296.5C119.862 294.249 124.118 294.168 126.272 294.409C115.211 292.335 118.47 287.05 121.253 286.9C122.613 286.828 128.139 287.516 130.72 287.935C129.754 287.663 127.545 286.795 126.448 285.507C125.077 283.898 125.764 282.372 127.842 281.542C129.611 280.833 143.326 281.889 147.468 282.288C150.781 282.608 154.157 279.473 155.366 277.868Z" fill="#ED4546"/>
<path d="M131.348 287.927L146.09 289.376" stroke="black" stroke-width="1.652" stroke-linecap="round"/>
<path d="M128.025 294.884L142.768 296.331" stroke="black" stroke-width="1.652" stroke-linecap="round"/>
<path d="M132.032 302.813L146.775 304.26" stroke="black" stroke-width="1.652" stroke-linecap="round"/>
<path d="M126.254 27.1464C130.216 31.642 133.254 36.8739 135.194 42.5435C137.134 48.213 137.938 54.2092 137.56 60.1895C137.183 66.1699 135.632 72.0173 132.994 77.3981C130.357 82.7789 126.686 87.5875 122.19 91.5494C117.695 95.5112 112.463 98.549 106.793 100.489C101.124 102.429 95.1275 103.233 89.1472 102.856C83.1668 102.478 77.3194 100.927 71.9386 98.2895C66.5578 95.6522 61.7492 91.9809 57.7874 87.4854L79.0411 68.7547C80.5433 70.4592 82.3664 71.8512 84.4066 72.8511C86.4467 73.851 88.6638 74.4394 90.9313 74.5823C93.1987 74.7254 95.4722 74.4206 97.6218 73.685C99.7714 72.9495 101.755 71.7978 103.46 70.2956C105.164 68.7934 106.556 66.9703 107.556 64.9301C108.556 62.89 109.144 60.6729 109.287 58.4055C109.43 56.138 109.125 53.8646 108.39 51.715C107.654 49.5652 106.503 47.5816 105 45.877L126.254 27.1464Z" stroke="black" stroke-width="1.652"/>
<path d="M134.856 69.9997L147.165 106.243L122.857 113.516L113.532 97.5395C122.919 91.758 127.582 85.5207 129.696 81.8735C128.307 76.3614 126.463 71.1187 127.707 66.1453C129.018 60.8967 132.742 64.4668 134.856 69.9997Z" fill="#ED4546"/>
<path d="M123.23 110.222C119.45 112.758 121.655 115.464 123.23 116.5C122.298 116.5 120.109 117.309 118.816 120.541C117.2 124.582 120.433 126.882 120.433 137.575C120.433 148.268 118.816 167.726 120.433 182.521C122.049 197.317 130.193 205.15 140.202 213.916C150.211 222.681 157.857 239.404 164.758 247.548C170.278 254.063 185.293 260.333 192.111 262.654C192.111 267.18 184.775 276.683 181.108 280.869C177.646 279.937 170.278 279.389 168.488 284.661C166.25 291.251 170.726 293.8 170.726 298.835C170.726 303.871 168.177 310.46 170.726 312.947C172.765 314.936 177.419 315.268 179.491 315.185C180.486 316.975 184.754 319.039 186.765 319.848C186.765 328.187 202.754 340.564 210.015 342.849C220.086 346.02 277.901 362.307 301.151 339.679C324.402 317.05 317.501 252.894 312.466 224.919C308.437 202.539 295.701 185.63 289.837 179.973C288.8 178.294 285.846 174.378 282.315 172.14C263.168 159.582 222.884 173.694 219.775 174.937C216.667 176.18 219.775 179.973 216.916 179.973C214.628 179.973 211.362 183.122 210.015 184.697C206.969 184.697 199.124 184.262 192.111 182.521C183.346 180.346 170.726 169.591 164.758 159.582C158.79 149.573 156.241 124.644 154.065 116.5C151.889 108.357 148.719 110.222 147.786 105.497C146.854 100.772 127.955 107.051 123.23 110.222Z" fill="#FFDC4D"/>
<path d="M209.145 187.557C208.15 191.266 206.223 202.788 206.472 219.2C206.72 235.612 200.731 251.402 197.706 257.246" stroke="black" stroke-width="1.652" stroke-linecap="round"/>
<path d="M199.758 319.35C204.172 317.858 218.221 318.169 231.401 319.35C244.58 320.531 265.965 311.144 269.757 306.482C273.55 301.819 312.777 256.127 309.295 226.224C306.25 200.068 293.515 187.963 269.757 200.177C264.576 202.788 252.873 213.232 247.502 234.12C240.788 260.23 240.726 276.393 229.598 277.512C218.47 278.631 202.182 273.098 194.287 276.89C186.205 279.812 183.371 283.082 181.232 294.173C179.094 305.263 178.392 313.796 180.175 316.304" stroke="black" stroke-width="1.652" stroke-linecap="round"/>
<path d="M170.353 308.649C172.735 309.251 177.825 310.464 179.118 310.514M169.234 286.331C171.803 285.793 177.614 284.951 180.3 285.896L169.234 286.331ZM170.353 292.485L179.616 294.413L170.353 292.485ZM172.094 301.251L178.621 300.94L172.094 301.251Z" stroke="black" stroke-width="1.652" stroke-linecap="round"/>
<path d="M125.761 110.49C125.679 111.947 125.554 115.047 125.712 115.783M141.963 105.48C142.745 106.818 144.235 109.919 143.947 111.614L141.963 105.48ZM137.617 107.317L137.597 112.902L137.617 107.317ZM131.449 110.016L132.659 113.624L131.449 110.016Z" stroke="black" stroke-width="1.652" stroke-linecap="round"/>
<path d="M285.858 182.521C278.585 185.36 263.068 192.008 259.189 195.887C254.34 200.736 241.782 206.891 239.855 205.896M220.708 184.013C222.717 187.64 227.372 195.638 229.908 198.622" stroke="black" stroke-width="1.652" stroke-linecap="round"/>
<path d="M275.539 178.418C274.295 178.957 271.349 180.383 269.509 181.775C267.208 183.516 264.908 186.189 263.354 187.557" stroke="black" stroke-width="1.652" stroke-linecap="round"/>
<path d="M225.557 177.424C225.823 177.725 226.455 178.519 226.849 179.296C227.341 180.267 227.835 181.758 228.168 182.521" stroke="black" stroke-width="1.652" stroke-linecap="round"/>
<path d="M262.422 178.418C260.1 182.356 254.24 191.312 249.367 195.639C244.493 199.965 242.072 201.13 241.471 201.171" stroke="black" stroke-width="1.652" stroke-linecap="round"/>
<path d="M274.196 150.704C274.196 164.583 262.945 175.832 249.068 175.832C244.346 175.832 238.096 176.767 234.322 174.502C227.005 170.109 223.94 159.86 223.94 150.704C223.94 136.826 235.19 125.577 249.068 125.577C262.945 125.577 274.196 136.826 274.196 150.704Z" fill="#ED4546"/>
<path d="M252.599 122.655C238.721 122.655 217.91 109.896 217.91 123.774C217.91 129.039 220.397 137.802 224.243 146.651C224.826 144.413 226.253 139.701 227.298 138.756C228.603 137.575 235.193 146.9 242.155 141.18C249.118 135.461 260.184 137.388 259.251 140.31C258.626 142.268 253.967 158.519 265.468 169.744C270.812 165.136 275.912 157.308 275.912 149.697C275.912 134.268 274.196 122.655 252.599 122.655Z" fill="black"/>
<path d="M261.044 177.997L260.573 170.562L237.327 169.526L236.009 176.491C236.009 185.443 235.317 199.422 239.358 199.804C245.802 200.413 259.54 180.773 261.044 177.997Z" fill="#ED4546"/>
<path d="M258.604 160.821C261.131 161.651 263.997 159.837 265.005 156.769C266.014 153.7 264.783 150.539 262.256 149.709C259.729 148.879 256.863 150.693 255.854 153.761C254.846 156.83 256.077 159.991 258.604 160.821Z" fill="#D7090A"/>
<path d="M257.136 155.265C257.983 153.854 260.337 152.159 262.5 152.536" stroke="black" stroke-width="1.10133" stroke-linecap="round"/>
<path d="M261.12 152.75C261.375 153.144 261.913 154.437 261.995 155.32" stroke="black" stroke-width="1.10133" stroke-linecap="round"/>
<path d="M232.446 161.838L237.835 153.877L239.383 163.046L232.446 161.838Z" fill="#D7090A"/>
<path d="M237.265 154.452L232.395 161.377L238.922 162.388" stroke="black" stroke-width="1.10133" stroke-linecap="round"/>
<path d="M236.001 166.926C236.847 166.957 238.975 166.813 240.706 165.985" stroke="black" stroke-width="1.10133" stroke-linecap="round"/>
<path d="M242.466 146.593C243.313 146.562 245.44 146.706 247.171 147.534" stroke="black" stroke-width="1.10133" stroke-linecap="round"/>
<path d="M231.629 147.214C230.783 147.183 228.657 147.328 226.925 148.156" stroke="black" stroke-width="1.10133" stroke-linecap="round"/>
<path d="M242.963 176.133C245.034 176.51 248.704 176.792 251.527 174.44" stroke="black" stroke-width="1.10133" stroke-linecap="round"/>
<path d="M230.783 154.363C231.666 154.363 232.382 153.647 232.382 152.763C232.382 151.88 231.666 151.164 230.783 151.164C229.899 151.164 229.183 151.88 229.183 152.763C229.183 153.647 229.899 154.363 230.783 154.363Z" fill="black"/>
<path d="M244.066 154.118C244.95 154.118 245.666 153.402 245.666 152.518C245.666 151.635 244.95 150.919 244.066 150.919C243.183 150.919 242.466 151.635 242.466 152.518C242.466 153.402 243.183 154.118 244.066 154.118Z" fill="black"/>
<path d="M244.784 162.041C246.544 162.041 247.972 160.614 247.972 158.853C247.972 157.093 246.544 155.665 244.784 155.665C243.023 155.665 241.596 157.093 241.596 158.853C241.596 160.614 243.023 162.041 244.784 162.041Z" fill="#D7090A"/>
<path d="M228.496 161.42C230.257 161.42 231.684 159.992 231.684 158.232C231.684 156.471 230.257 155.044 228.496 155.044C226.735 155.044 225.308 156.471 225.308 158.232C225.308 159.992 226.735 161.42 228.496 161.42Z" fill="#D7090A"/>
</g>
<defs>
<clipPath id="clip0_2265_62">
<rect width="373" height="373" fill="white"/>
</clipPath>
</defs>
</svg>
