<svg width="48" height="48" viewBox="0 0 48 48" fill="none" xmlns="http://www.w3.org/2000/svg">
<rect width="48" height="48" rx="5" fill="white"/>
<path d="M9.048 42.6C9.048 42.6 9.048 34.7 9.048 29.6C9.048 24.5 13.752 23.784 13.752 23.784H9.048H3V18.792H9.048V14.376C9.048 12.744 9.528 11.448 10.488 10.488C11.48 9.496 12.76 9 14.328 9H20.568V13.992H16.44C15.544 13.992 15.096 14.472 15.096 15.432V18.792H21.336V23.784H15.096V42.6H9.048Z" fill="black"/>
<path d="M33.336 43.152C31.032 43.152 28.936 42.672 27.048 41.712C25.192 40.752 23.72 39.36 22.632 37.536C21.544 35.712 21 33.504 21 30.912V30.24C21 27.648 21.544 25.44 22.632 23.616C23.72 21.792 25.192 20.4 27.048 19.44C28.936 18.48 31.032 18 33.336 18C35.608 18 37.56 18.4 39.192 19.2C40.824 20 42.136 21.104 43.128 22.512C44.152 23.888 44.824 25.456 45.144 27.216L39.288 28.464C39.16 27.504 38.872 26.64 38.424 25.872C37.976 25.104 37.336 24.496 36.504 24.048C35.704 23.6 34.696 23.376 33.48 23.376C32.264 23.376 31.16 23.648 30.168 24.192C29.208 24.704 28.44 25.488 27.864 26.544C27.32 27.568 27.048 28.832 27.048 30.336V30.816C27.048 32.32 27.32 33.6 27.864 34.656C28.44 35.68 29.208 36.464 30.168 37.008C31.16 37.52 32.264 37.776 33.48 37.776C35.304 37.776 36.68 37.312 37.608 36.384C38.568 35.424 39.176 34.176 39.432 32.64L45.288 34.032C44.872 35.728 44.152 37.28 43.128 38.688C42.136 40.064 40.824 41.152 39.192 41.952C37.56 42.752 35.608 43.152 33.336 43.152Z" fill="black"/>
</svg>
