<svg width="268" height="35" viewBox="0 0 268 35" fill="none" xmlns="http://www.w3.org/2000/svg">
<path d="M252.885 34V10.192H258.837V12.88H259.701C260.053 11.92 260.629 11.216 261.429 10.768C262.261 10.32 263.221 10.096 264.309 10.096H267.189V15.472H264.213C262.677 15.472 261.413 15.888 260.421 16.72C259.429 17.52 258.933 18.768 258.933 20.464V34H252.885Z" fill="white"/>
<path d="M234.927 34.672C233.231 34.672 231.711 34.384 230.367 33.808C229.023 33.2 227.951 32.336 227.151 31.216C226.383 30.064 225.999 28.672 225.999 27.04C225.999 25.408 226.383 24.048 227.151 22.96C227.951 21.84 229.039 21.008 230.415 20.464C231.823 19.888 233.423 19.6 235.215 19.6H241.743V18.256C241.743 17.136 241.391 16.224 240.687 15.52C239.983 14.784 238.863 14.416 237.327 14.416C235.823 14.416 234.703 14.768 233.967 15.472C233.231 16.144 232.751 17.024 232.527 18.112L226.959 16.24C227.343 15.024 227.951 13.92 228.783 12.928C229.647 11.904 230.783 11.088 232.191 10.48C233.631 9.83999 235.375 9.51999 237.423 9.51999C240.559 9.51999 243.039 10.304 244.863 11.872C246.687 13.44 247.599 15.712 247.599 18.688V27.568C247.599 28.528 248.047 29.008 248.943 29.008H250.863V34H246.831C245.647 34 244.671 33.712 243.903 33.136C243.135 32.56 242.751 31.792 242.751 30.832V30.784H241.839C241.711 31.168 241.423 31.68 240.975 32.32C240.527 32.928 239.823 33.472 238.863 33.952C237.903 34.432 236.591 34.672 234.927 34.672ZM235.983 29.776C237.679 29.776 239.055 29.312 240.111 28.384C241.199 27.424 241.743 26.16 241.743 24.592V24.112H235.647C234.527 24.112 233.647 24.352 233.007 24.832C232.367 25.312 232.047 25.984 232.047 26.848C232.047 27.712 232.383 28.416 233.055 28.96C233.727 29.504 234.703 29.776 235.983 29.776Z" fill="white"/>
<path d="M213.08 34.672C210.712 34.672 208.616 34.176 206.792 33.184C205 32.16 203.592 30.736 202.568 28.912C201.576 27.056 201.08 24.88 201.08 22.384V21.808C201.08 19.312 201.576 17.152 202.568 15.328C203.56 13.472 204.952 12.048 206.744 11.056C208.536 10.032 210.616 9.51999 212.984 9.51999C215.32 9.51999 217.352 10.048 219.08 11.104C220.808 12.128 222.152 13.568 223.112 15.424C224.072 17.248 224.552 19.376 224.552 21.808V23.872H207.224C207.288 25.504 207.896 26.832 209.048 27.856C210.2 28.88 211.608 29.392 213.272 29.392C214.968 29.392 216.216 29.024 217.016 28.288C217.816 27.552 218.424 26.736 218.84 25.84L223.784 28.432C223.336 29.264 222.68 30.176 221.816 31.168C220.984 32.128 219.864 32.96 218.456 33.664C217.048 34.336 215.256 34.672 213.08 34.672ZM207.272 19.36H218.408C218.28 17.984 217.72 16.88 216.728 16.048C215.768 15.216 214.504 14.8 212.936 14.8C211.304 14.8 210.008 15.216 209.048 16.048C208.088 16.88 207.496 17.984 207.272 19.36Z" fill="white"/>
<path d="M191.882 34V0.399994H197.93V34H191.882Z" fill="white"/>
<path d="M177.341 34.672C175.037 34.672 172.941 34.192 171.053 33.232C169.197 32.272 167.725 30.88 166.637 29.056C165.549 27.232 165.005 25.024 165.005 22.432V21.76C165.005 19.168 165.549 16.96 166.637 15.136C167.725 13.312 169.197 11.92 171.053 10.96C172.941 9.99999 175.037 9.51999 177.341 9.51999C179.613 9.51999 181.565 9.91999 183.197 10.72C184.829 11.52 186.141 12.624 187.133 14.032C188.157 15.408 188.829 16.976 189.149 18.736L183.293 19.984C183.165 19.024 182.877 18.16 182.429 17.392C181.981 16.624 181.341 16.016 180.509 15.568C179.709 15.12 178.701 14.896 177.485 14.896C176.269 14.896 175.165 15.168 174.173 15.712C173.213 16.224 172.445 17.008 171.869 18.064C171.325 19.088 171.053 20.352 171.053 21.856V22.336C171.053 23.84 171.325 25.12 171.869 26.176C172.445 27.2 173.213 27.984 174.173 28.528C175.165 29.04 176.269 29.296 177.485 29.296C179.309 29.296 180.685 28.832 181.613 27.904C182.573 26.944 183.181 25.696 183.437 24.16L189.293 25.552C188.877 27.248 188.157 28.8 187.133 30.208C186.141 31.584 184.829 32.672 183.197 33.472C181.565 34.272 179.613 34.672 177.341 34.672Z" fill="white"/>
<path d="M151.702 34.672C149.334 34.672 147.238 34.176 145.414 33.184C143.622 32.16 142.214 30.736 141.19 28.912C140.198 27.056 139.702 24.88 139.702 22.384V21.808C139.702 19.312 140.198 17.152 141.19 15.328C142.182 13.472 143.574 12.048 145.366 11.056C147.158 10.032 149.238 9.51999 151.606 9.51999C153.942 9.51999 155.974 10.048 157.702 11.104C159.43 12.128 160.774 13.568 161.734 15.424C162.694 17.248 163.174 19.376 163.174 21.808V23.872H145.846C145.91 25.504 146.518 26.832 147.67 27.856C148.822 28.88 150.23 29.392 151.894 29.392C153.59 29.392 154.838 29.024 155.638 28.288C156.438 27.552 157.046 26.736 157.462 25.84L162.406 28.432C161.958 29.264 161.302 30.176 160.438 31.168C159.606 32.128 158.486 32.96 157.078 33.664C155.67 34.336 153.878 34.672 151.702 34.672ZM145.894 19.36H157.03C156.902 17.984 156.342 16.88 155.35 16.048C154.39 15.216 153.126 14.8 151.558 14.8C149.926 14.8 148.63 15.216 147.67 16.048C146.71 16.88 146.118 17.984 145.894 19.36Z" fill="white"/>
<path d="M102.285 34V10.192H108.237V12.784H109.101C109.517 11.984 110.205 11.296 111.165 10.72C112.125 10.112 113.389 9.80798 114.957 9.80798C116.653 9.80798 118.013 10.144 119.037 10.816C120.061 11.456 120.845 12.304 121.389 13.36H122.253C122.797 12.336 123.565 11.488 124.557 10.816C125.549 10.144 126.957 9.80798 128.781 9.80798C130.253 9.80798 131.581 10.128 132.765 10.768C133.981 11.376 134.941 12.32 135.645 13.6C136.381 14.848 136.749 16.432 136.749 18.352V34H130.701V18.784C130.701 17.472 130.365 16.496 129.693 15.856C129.021 15.184 128.077 14.848 126.861 14.848C125.485 14.848 124.413 15.296 123.645 16.192C122.909 17.056 122.541 18.304 122.541 19.936V34H116.493V18.784C116.493 17.472 116.157 16.496 115.485 15.856C114.813 15.184 113.869 14.848 112.653 14.848C111.277 14.848 110.205 15.296 109.437 16.192C108.701 17.056 108.333 18.304 108.333 19.936V34H102.285Z" fill="white"/>
<path d="M84.327 34.672C82.631 34.672 81.111 34.384 79.767 33.808C78.423 33.2 77.351 32.336 76.551 31.216C75.783 30.064 75.399 28.672 75.399 27.04C75.399 25.408 75.783 24.048 76.551 22.96C77.351 21.84 78.439 21.008 79.815 20.464C81.223 19.888 82.823 19.6 84.615 19.6H91.143V18.256C91.143 17.136 90.791 16.224 90.087 15.52C89.383 14.784 88.263 14.416 86.727 14.416C85.223 14.416 84.103 14.768 83.367 15.472C82.631 16.144 82.151 17.024 81.927 18.112L76.359 16.24C76.743 15.024 77.351 13.92 78.183 12.928C79.047 11.904 80.183 11.088 81.591 10.48C83.031 9.83999 84.775 9.51999 86.823 9.51999C89.959 9.51999 92.439 10.304 94.263 11.872C96.087 13.44 96.999 15.712 96.999 18.688V27.568C96.999 28.528 97.447 29.008 98.343 29.008H100.263V34H96.231C95.047 34 94.071 33.712 93.303 33.136C92.535 32.56 92.151 31.792 92.151 30.832V30.784H91.239C91.111 31.168 90.823 31.68 90.375 32.32C89.927 32.928 89.223 33.472 88.263 33.952C87.303 34.432 85.991 34.672 84.327 34.672ZM85.383 29.776C87.079 29.776 88.455 29.312 89.511 28.384C90.599 27.424 91.143 26.16 91.143 24.592V24.112H85.047C83.927 24.112 83.047 24.352 82.407 24.832C81.767 25.312 81.447 25.984 81.447 26.848C81.447 27.712 81.783 28.416 82.455 28.96C83.127 29.504 84.103 29.776 85.383 29.776Z" fill="white"/>
<path d="M60.8662 34V10.192H66.8182V12.88H67.6822C68.0342 11.92 68.6102 11.216 69.4102 10.768C70.2422 10.32 71.2022 10.096 72.2902 10.096H75.1702V15.472H72.1942C70.6582 15.472 69.3942 15.888 68.4022 16.72C67.4102 17.52 66.9142 18.768 66.9142 20.464V34H60.8662Z" fill="white"/>
<path d="M46.048 33.6C46.048 33.6 46.048 25.7 46.048 20.6C46.048 15.5 50.752 14.784 50.752 14.784H46.048H40V9.792H46.048V5.376C46.048 3.744 46.528 2.448 47.488 1.488C48.48 0.496 49.76 0 51.328 0H57.568V4.992H53.44C52.544 4.992 52.096 5.472 52.096 6.432V9.792H58.336V14.784H52.096V33.6H46.048Z" fill="white"/>
<path fill-rule="evenodd" clip-rule="evenodd" d="M30 1C31.6569 1 33 2.34315 33 4V31C33 32.6569 31.6569 34 30 34H3C1.34315 34 0 32.6569 0 31V4C0 2.34315 1.34315 1 3 1H30ZM5.38477 5.38477C4.83248 5.38477 4.38477 5.83248 4.38477 6.38477V28.6152C4.38477 29.1675 4.83248 29.6152 5.38477 29.6152H15.3076V18.3896C15.3076 10.3838 20.0376 6.86486 23.3301 5.38477H5.38477ZM1.00977 3.80078C1.00315 3.86629 1 3.93276 1 4L1.01074 3.7959L1.00977 3.80078Z" fill="white"/>
</svg>
