<svg width="179" height="24" viewBox="0 0 179 24" fill="none" xmlns="http://www.w3.org/2000/svg">
<path d="M168.82 22.6975V6.80392H172.793V8.59836H173.37C173.605 7.95749 173.989 7.48751 174.523 7.18844C175.079 6.88937 175.72 6.73983 176.446 6.73983H178.369V10.3287H176.382C175.357 10.3287 174.513 10.6064 173.851 11.1618C173.188 11.6959 172.857 12.529 172.857 13.6612V22.6975H168.82Z" fill="black"/>
<path d="M156.831 23.1462C155.699 23.1462 154.685 22.9539 153.787 22.5694C152.89 22.1635 152.174 21.5867 151.64 20.839C151.128 20.07 150.871 19.1407 150.871 18.0512C150.871 16.9617 151.128 16.0538 151.64 15.3275C152.174 14.5798 152.901 14.0244 153.819 13.6613C154.759 13.2767 155.827 13.0845 157.024 13.0845H161.382V12.1872C161.382 11.4396 161.147 10.8307 160.677 10.3608C160.207 9.86942 159.459 9.62376 158.434 9.62376C157.43 9.62376 156.682 9.85874 156.191 10.3287C155.699 10.7773 155.379 11.3648 155.229 12.0911L151.512 10.8414C151.769 10.0296 152.174 9.29264 152.73 8.63041C153.307 7.94681 154.065 7.40207 155.005 6.99618C155.966 6.56893 157.131 6.35531 158.498 6.35531C160.591 6.35531 162.247 6.87869 163.464 7.92545C164.682 8.9722 165.291 10.4889 165.291 12.4756V18.4037C165.291 19.0446 165.59 19.365 166.188 19.365H167.47V22.6975H164.778C163.988 22.6975 163.336 22.5053 162.824 22.1208C162.311 21.7362 162.055 21.2235 162.055 20.5827V20.5506H161.446C161.36 20.807 161.168 21.1488 160.869 21.576C160.57 21.9819 160.1 22.3451 159.459 22.6655C158.818 22.9859 157.942 23.1462 156.831 23.1462ZM157.536 19.8777C158.669 19.8777 159.587 19.568 160.292 18.9484C161.018 18.3076 161.382 17.4638 161.382 16.417V16.0966H157.312C156.564 16.0966 155.977 16.2568 155.55 16.5772C155.122 16.8977 154.909 17.3463 154.909 17.923C154.909 18.4998 155.133 18.9698 155.582 19.333C156.03 19.6961 156.682 19.8777 157.536 19.8777Z" fill="black"/>
<path d="M142.247 23.1462C140.666 23.1462 139.267 22.815 138.049 22.1528C136.853 21.4692 135.913 20.5186 135.229 19.3009C134.567 18.0619 134.236 16.6093 134.236 14.943V14.5585C134.236 12.8922 134.567 11.4502 135.229 10.2326C135.891 8.99357 136.821 8.04294 138.017 7.38071C139.213 6.69711 140.602 6.35531 142.183 6.35531C143.742 6.35531 145.099 6.70779 146.252 7.41275C147.406 8.09635 148.303 9.05765 148.944 10.2967C149.585 11.5143 149.905 12.9349 149.905 14.5585V15.9363H138.337C138.38 17.0258 138.786 17.9124 139.555 18.596C140.324 19.2796 141.264 19.6214 142.375 19.6214C143.507 19.6214 144.34 19.3757 144.874 18.8844C145.408 18.393 145.814 17.8483 146.092 17.2501L149.392 18.9805C149.093 19.5359 148.655 20.1447 148.079 20.807C147.523 21.4478 146.776 22.0033 145.836 22.4732C144.896 22.9219 143.699 23.1462 142.247 23.1462ZM138.369 12.9242H145.804C145.718 12.0057 145.344 11.2687 144.682 10.7132C144.041 10.1578 143.197 9.88011 142.151 9.88011C141.061 9.88011 140.196 10.1578 139.555 10.7132C138.914 11.2687 138.519 12.0057 138.369 12.9242Z" fill="black"/>
<path d="M128.096 22.6975V0.267029H132.133V22.6975H128.096Z" fill="black"/>
<path d="M118.388 23.1462C116.85 23.1462 115.451 22.8257 114.191 22.1848C112.952 21.544 111.969 20.6147 111.243 19.3971C110.516 18.1794 110.153 16.7054 110.153 14.975V14.5264C110.153 12.7961 110.516 11.3221 111.243 10.1044C111.969 8.88675 112.952 7.95749 114.191 7.31662C115.451 6.67575 116.85 6.35531 118.388 6.35531C119.905 6.35531 121.208 6.62234 122.298 7.1564C123.387 7.69046 124.263 8.42746 124.925 9.36741C125.609 10.286 126.058 11.3327 126.271 12.5077L122.362 13.3408C122.276 12.6999 122.084 12.1232 121.785 11.6105C121.486 11.0978 121.059 10.6919 120.503 10.3928C119.969 10.0937 119.296 9.94419 118.485 9.94419C117.673 9.94419 116.936 10.1258 116.274 10.4889C115.633 10.8307 115.12 11.3541 114.735 12.0591C114.372 12.7427 114.191 13.5865 114.191 14.5905V14.911C114.191 15.915 114.372 16.7695 114.735 17.4744C115.12 18.158 115.633 18.6814 116.274 19.0446C116.936 19.3864 117.673 19.5573 118.485 19.5573C119.702 19.5573 120.621 19.2475 121.24 18.628C121.881 17.9871 122.287 17.154 122.458 16.1286L126.367 17.0579C126.09 18.1901 125.609 19.2262 124.925 20.1661C124.263 21.0847 123.387 21.811 122.298 22.3451C121.208 22.8791 119.905 23.1462 118.388 23.1462Z" fill="black"/>
<path d="M101.272 23.1462C99.6916 23.1462 98.2923 22.815 97.0747 22.1528C95.8784 21.4692 94.9384 20.5186 94.2548 19.3009C93.5926 18.0619 93.2615 16.6093 93.2615 14.943V14.5585C93.2615 12.8922 93.5926 11.4502 94.2548 10.2326C94.9171 8.99357 95.8463 8.04294 97.0426 7.38071C98.2389 6.69711 99.6275 6.35531 101.208 6.35531C102.768 6.35531 104.124 6.70779 105.278 7.41275C106.431 8.09635 107.329 9.05765 107.969 10.2967C108.61 11.5143 108.931 12.9349 108.931 14.5585V15.9363H97.3631C97.4058 17.0258 97.8117 17.9124 98.5807 18.596C99.3498 19.2796 100.29 19.6214 101.401 19.6214C102.533 19.6214 103.366 19.3757 103.9 18.8844C104.434 18.393 104.84 17.8483 105.118 17.2501L108.418 18.9805C108.119 19.5359 107.681 20.1447 107.104 20.807C106.549 21.4478 105.801 22.0033 104.861 22.4732C103.921 22.9219 102.725 23.1462 101.272 23.1462ZM97.3951 12.9242H104.829C104.744 12.0057 104.37 11.2687 103.708 10.7132C103.067 10.1578 102.223 9.88011 101.176 9.88011C100.087 9.88011 99.2216 10.1578 98.5807 10.7132C97.9398 11.2687 97.5446 12.0057 97.3951 12.9242Z" fill="black"/>
<path d="M68.283 22.6975V6.80393H72.2564V8.53428H72.8331C73.1109 8.00022 73.5702 7.54093 74.211 7.15641C74.8519 6.75052 75.6957 6.54758 76.7425 6.54758C77.8747 6.54758 78.7826 6.77188 79.4662 7.22049C80.1498 7.64774 80.6732 8.21384 81.0363 8.9188H81.6131C81.9763 8.23521 82.489 7.6691 83.1512 7.22049C83.8134 6.77188 84.7534 6.54758 85.971 6.54758C86.9537 6.54758 87.8402 6.7612 88.6306 7.18845C89.4424 7.59433 90.0833 8.22452 90.5533 9.07902C91.0446 9.91215 91.2903 10.9696 91.2903 12.2513V22.6975H87.2528V12.5397C87.2528 11.6639 87.0285 11.0123 86.5799 10.5851C86.1312 10.1365 85.5011 9.91215 84.6893 9.91215C83.7707 9.91215 83.0551 10.2112 82.5424 10.8094C82.051 11.3862 81.8054 12.2193 81.8054 13.3088V22.6975H77.7679V12.5397C77.7679 11.6639 77.5436 11.0123 77.0949 10.5851C76.6463 10.1365 76.0161 9.91215 75.2044 9.91215C74.2858 9.91215 73.5702 10.2112 73.0575 10.8094C72.5661 11.3862 72.3205 12.2193 72.3205 13.3088V22.6975H68.283Z" fill="black"/>
<path d="M56.2946 23.1462C55.1624 23.1462 54.1477 22.9539 53.2504 22.5694C52.3532 22.1635 51.6376 21.5867 51.1035 20.839C50.5908 20.07 50.3345 19.1407 50.3345 18.0512C50.3345 16.9617 50.5908 16.0538 51.1035 15.3275C51.6376 14.5798 52.3639 14.0244 53.2825 13.6613C54.2224 13.2767 55.2905 13.0845 56.4868 13.0845H60.8448V12.1872C60.8448 11.4396 60.6098 10.8307 60.1398 10.3608C59.6698 9.86942 58.9222 9.62376 57.8968 9.62376C56.8927 9.62376 56.145 9.85874 55.6537 10.3287C55.1624 10.7773 54.8419 11.3648 54.6924 12.0911L50.9753 10.8414C51.2317 10.0296 51.6376 9.29264 52.193 8.63041C52.7698 7.94681 53.5281 7.40207 54.4681 6.99618C55.4294 6.56893 56.5937 6.35531 57.9608 6.35531C60.0544 6.35531 61.7099 6.87869 62.9276 7.92545C64.1453 8.9722 64.7541 10.4889 64.7541 12.4756V18.4037C64.7541 19.0446 65.0532 19.365 65.6513 19.365H66.9331V22.6975H64.2414C63.451 22.6975 62.7994 22.5053 62.2867 22.1208C61.774 21.7362 61.5177 21.2235 61.5177 20.5827V20.5506H60.9089C60.8234 20.807 60.6311 21.1488 60.3321 21.576C60.033 21.9819 59.563 22.3451 58.9222 22.6655C58.2813 22.9859 57.4054 23.1462 56.2946 23.1462ZM56.9995 19.8777C58.1317 19.8777 59.0503 19.568 59.7553 18.9484C60.4816 18.3076 60.8448 17.4638 60.8448 16.417V16.0966H56.7752C56.0276 16.0966 55.4401 16.2568 55.0128 16.5772C54.5856 16.8977 54.372 17.3463 54.372 17.923C54.372 18.4998 54.5963 18.9698 55.0449 19.333C55.4935 19.6961 56.145 19.8777 56.9995 19.8777Z" fill="black"/>
<path d="M40.6328 22.6975V6.80392H44.6062V8.59836H45.183C45.418 7.95749 45.8025 7.48751 46.3366 7.18844C46.892 6.88937 47.5329 6.73983 48.2592 6.73983H50.1818V10.3287H48.1951C47.1697 10.3287 46.3259 10.6064 45.6637 11.1618C45.0014 11.6959 44.6703 12.529 44.6703 13.6612V22.6975H40.6328Z" fill="black"/>
<path d="M30.7405 22.4305C30.7405 22.4305 30.7405 17.1567 30.7405 13.752C30.7405 10.3474 33.8807 9.86943 33.8807 9.86943H30.7405H26.703V6.53689H30.7405V3.58889C30.7405 2.4994 31.0609 1.63422 31.7018 0.993352C32.364 0.331117 33.2185 0 34.2653 0H38.431V3.33253H35.6752C35.0771 3.33253 34.778 3.65297 34.778 4.29384V6.53689H38.9437V9.86943H34.778V22.4305H30.7405Z" fill="black"/>
<path fill-rule="evenodd" clip-rule="evenodd" d="M20.0272 0.66758C21.1333 0.66758 22.03 1.56423 22.03 2.6703V20.6948C22.03 21.8009 21.1333 22.6976 20.0272 22.6976H2.00272C0.89665 22.6976 0 21.8009 0 20.6948V2.6703C0 1.56423 0.89665 0.66758 2.00272 0.66758H20.0272ZM3.59473 3.59474C3.22604 3.59474 2.92716 3.89362 2.92716 4.26231V19.1028C2.92716 19.4715 3.22604 19.7704 3.59473 19.7704H10.219V12.2765C10.219 6.93194 13.3766 4.58281 15.5746 3.59474H3.59473ZM0.674094 2.53731C0.66968 2.58104 0.667575 2.62542 0.667575 2.6703L0.674746 2.53405L0.674094 2.53731Z" fill="black"/>
</svg>
